<svg xmlns="http://www.w3.org/2000/svg" xmlns:xlink="http://www.w3.org/1999/xlink" width="360" height="70" viewBox="0 0 360 70">
  <defs>
    <style>
      .cls-1 {
        opacity: 0.04;
        clip-path: url(#clip-path);
      }
    </style>
    <clipPath id="clip-path">
      <path id="Path_662" data-name="Path 662" d="M35,0H325a35,35,0,0,1,0,70H35A35,35,0,0,1,35,0Z" transform="translate(630 1073)"/>
    </clipPath>
  </defs>
  <g id="Mask_Group_11" data-name="Mask Group 11" class="cls-1" transform="translate(-630 -1073)">
    <g id="Group_839" data-name="Group 839" transform="translate(623 1015)">
      <g id="Group_838" data-name="Group 838">
        <g id="Group_744" data-name="Group 744">
          <path id="Path_667" data-name="Path 667" d="M.594,139.462a.73.73,0,0,0,.726-.734L1.3,134.265l9.186-.051.012,2.3a.591.591,0,1,0,1.182-.007l-.041-7.363a.59.59,0,0,0-1.181.007l.013,2.3-9.186.051-.025-4.463a.73.73,0,0,0-1.256-.5v12.617A.731.731,0,0,0,.594,139.462Z" transform="translate(0 -21.492)"/>
          <g id="Group_714" data-name="Group 714" transform="translate(98.214)">
            <path id="Path_668" data-name="Path 668" d="M132.287,3.912,118.88,16.8a1.726,1.726,0,0,0-.025,2.465l1.215,1.215a1.726,1.726,0,0,0,2.465-.025L135.359,7.109Z" transform="translate(-118.35 -0.666)"/>
            <path id="Path_669" data-name="Path 669" d="M145.719,0H142.84l1.5,1.438Z" transform="translate(-122.517)"/>
            <path id="Path_670" data-name="Path 670" d="M152.364,19.62a1.725,1.725,0,0,0,2.465.024l1.215-1.215a1.725,1.725,0,0,0-.025-2.464L139.408,0h-5.933l.816.815Z" transform="translate(-120.924)"/>
          </g>
          <g id="Group_715" data-name="Group 715" transform="translate(43.634 58.195)">
            <path id="Path_671" data-name="Path 671" d="M66.516,93.685,53.109,106.57a1.726,1.726,0,0,0-.024,2.465L54.3,110.25a1.726,1.726,0,0,0,2.465-.025L69.589,96.882Z" transform="translate(-52.58 -74.135)"/>
            <path id="Path_672" data-name="Path 672" d="M91.321,71.865a5.931,5.931,0,0,0-8.962,7.722l-3.29,3.29-2.238.6-1.573,1.511,3,2.885,1.455-1.514.6-2.238,3.29-3.29a5.931,5.931,0,0,0,7.723-8.963Zm-1.049,7.344a4.451,4.451,0,1,1,0-6.3A4.456,4.456,0,0,1,90.272,79.209Z" transform="translate(-56.438 -70.126)"/>
            <path id="Path_673" data-name="Path 673" d="M87.88,102.429,70.233,85.469l-2.212-2.211-2.287-.609-3.316-3.316.006-.006c-7.4-.528-7.567-1.57-7.567-1.57-.292-1.027.46-7.431.46-7.431s-2.409,7.265-1.2,8.4S61.156,80.6,61.156,80.6l-.006.006,3.316,3.316.609,2.287,1.075,1.075,18.074,18.805a1.726,1.726,0,0,0,2.466.024l1.214-1.215A1.726,1.726,0,0,0,87.88,102.429Z" transform="translate(-52.784 -70.16)"/>
          </g>
          <path id="Path_674" data-name="Path 674" d="M90.388,1.733A17.216,17.216,0,0,1,90.478,0H87.933a16.847,16.847,0,0,0,.616,2.072A.948.948,0,0,0,90.388,1.733Z" transform="translate(-14.961)"/>
          <path id="Path_675" data-name="Path 675" d="M105.172,2.072A16.7,16.7,0,0,0,105.787,0h-2.544a17.22,17.22,0,0,1,.09,1.733A.949.949,0,0,0,105.172,2.072Z" transform="translate(-17.566)"/>
          <path id="Path_676" data-name="Path 676" d="M194.158,23.4c-2.033-.786-4.145-.149-6.161.4-1.8-.489-3.685-1.046-5.517-.6a2.4,2.4,0,0,1-.6,2.469c-.6.719-2.273-.5-2.04,1.69.112,1.051-.772,1.433-1.724,1.254a7.151,7.151,0,0,0,.012.716,8.393,8.393,0,0,0,.929,3.739c.614,1.139,1.349,2.031,1.39,3.423.041,1.367-.778,5.249-.654,8.465a21.538,21.538,0,0,0,1.2,6.688.949.949,0,0,0,1.84-.339,16.434,16.434,0,0,1,.4-3.654,13.016,13.016,0,0,1,2.7-5.56,2.845,2.845,0,0,1,4.138,0,13.018,13.018,0,0,1,2.7,5.56,16.532,16.532,0,0,1,.4,3.654.949.949,0,0,0,1.84.339,21.536,21.536,0,0,0,1.2-6.688c.124-3.217-.695-7.1-.653-8.465.042-1.393.776-2.284,1.39-3.423a8.393,8.393,0,0,0,.929-3.739A5.635,5.635,0,0,0,194.158,23.4Z" transform="translate(-30.303 -3.919)"/>
          <path id="Path_677" data-name="Path 677" d="M144.546,170.689c-2.033-.785-4.145-.149-6.161.4-1.8-.488-3.685-1.046-5.517-.6a2.4,2.4,0,0,1-.6,2.47c-.6.719-2.273-.505-2.041,1.69.112,1.051-.772,1.433-1.724,1.254a7.146,7.146,0,0,0,.012.716,8.388,8.388,0,0,0,.929,3.739c.614,1.14,1.349,2.031,1.39,3.423.041,1.367-.778,5.249-.653,8.466a21.517,21.517,0,0,0,1.2,6.688.949.949,0,0,0,1.84-.339,16.479,16.479,0,0,1,.4-3.654,13.02,13.02,0,0,1,2.7-5.561,2.844,2.844,0,0,1,4.137,0,13.021,13.021,0,0,1,2.7,5.561,16.526,16.526,0,0,1,.4,3.654.949.949,0,0,0,1.84.339,21.54,21.54,0,0,0,1.2-6.688c.124-3.217-.694-7.1-.653-8.466.042-1.393.776-2.283,1.39-3.423a8.388,8.388,0,0,0,.929-3.739A5.634,5.634,0,0,0,144.546,170.689Z" transform="translate(-21.863 -28.978)"/>
          <g id="Group_716" data-name="Group 716" transform="translate(0 127.273)">
            <path id="Path_678" data-name="Path 678" d="M2.4,160.652H8.186l.827,3.726h7.27a11.109,11.109,0,0,0,.7-3.556,6.67,6.67,0,0,0-4.394-7.021c-2.407-.929-4.907-.176-7.293.47A17,17,0,0,0,0,153.383v11H1.568Z" transform="translate(0 -153.367)"/>
            <path id="Path_679" data-name="Path 679" d="M7.74,177.757a15.417,15.417,0,0,1,3.2,6.582,19.511,19.511,0,0,1,.474,4.326,1.123,1.123,0,0,0,2.178.4,25.5,25.5,0,0,0,1.416-7.917c.147-3.809-.822-8.4-.773-10.023a6.562,6.562,0,0,1,1.2-3.273H7.875l-.828-3.726H3.465l-.828,3.726H0v15.2a14.409,14.409,0,0,1,2.842-5.3A3.367,3.367,0,0,1,7.74,177.757Z" transform="translate(0 -155.198)"/>
          </g>
          <g id="Group_717" data-name="Group 717" transform="translate(138.436)">
            <path id="Path_680" data-name="Path 680" d="M166.818,3.378a8.48,8.48,0,0,0,8.481,8.481h5.4V0H167.45a8.448,8.448,0,0,0-.632,3.207Z" transform="translate(-166.818)"/>
            <path id="Path_681" data-name="Path 681" d="M193.452,11.859a8.48,8.48,0,0,0,8.481-8.481V3.207A8.447,8.447,0,0,0,201.3,0H188.047V11.859Z" transform="translate(-170.43)"/>
          </g>
          <g id="Group_718" data-name="Group 718" transform="translate(26.417 103.108)">
            <path id="Path_682" data-name="Path 682" d="M48.966,138.133v-5.4a8.481,8.481,0,0,0-8.481-8.481h-.171a8.48,8.48,0,0,0-8.481,8.481v5.4Z" transform="translate(-31.833 -124.247)"/>
            <path id="Path_683" data-name="Path 683" d="M48.966,150.881v-5.4H31.833v5.4a8.48,8.48,0,0,0,8.481,8.481h.171A8.481,8.481,0,0,0,48.966,150.881Z" transform="translate(-31.833 -127.859)"/>
          </g>
          <g id="Group_719" data-name="Group 719" transform="translate(66.62 8.448)">
            <path id="Path_684" data-name="Path 684" d="M92.6,10.18H87.8a7.527,7.527,0,0,0-7.527,7.527v.152A7.527,7.527,0,0,0,87.8,25.386h4.8Z" transform="translate(-80.278 -10.18)"/>
            <path id="Path_685" data-name="Path 685" d="M103.915,10.18h-4.8V25.386h4.8a7.527,7.527,0,0,0,7.527-7.527v-.152A7.527,7.527,0,0,0,103.915,10.18Z" transform="translate(-83.483 -10.18)"/>
          </g>
          <g id="Group_720" data-name="Group 720" transform="translate(35.342)">
            <path id="Path_686" data-name="Path 686" d="M45.875,21.991h18.69A3.287,3.287,0,0,0,67.853,18.7V0H64.515V18.209H45.927V0H42.588V18.7A3.287,3.287,0,0,0,45.875,21.991Z" transform="translate(-42.588)"/>
            <rect id="Rectangle_332" data-name="Rectangle 332" width="13.963" height="0.924" transform="translate(5.685)"/>
            <rect id="Rectangle_333" data-name="Rectangle 333" width="13.963" height="1.286" transform="translate(5.685 2.006)"/>
            <rect id="Rectangle_334" data-name="Rectangle 334" width="9.677" height="1.286" transform="translate(9.937 5.999)"/>
            <rect id="Rectangle_335" data-name="Rectangle 335" width="13.963" height="1.286" transform="translate(5.651 8.345)"/>
            <rect id="Rectangle_336" data-name="Rectangle 336" width="13.963" height="1.286" transform="translate(5.651 10.714)"/>
          </g>
          <g id="Group_721" data-name="Group 721" transform="translate(74.155 121.328)">
            <path id="Path_687" data-name="Path 687" d="M111.336,146.2H92.645a3.287,3.287,0,0,0-3.287,3.287v27.339a3.287,3.287,0,0,0,3.287,3.287h18.691a3.287,3.287,0,0,0,3.287-3.287V149.49A3.287,3.287,0,0,0,111.336,146.2Zm-.051,30.131H92.7V149.986h4.015a2.037,2.037,0,0,1,1.931-1.4h1a2.251,2.251,0,0,1,2.183-1.717h.046a2.251,2.251,0,0,1,2.184,1.717h1a2.037,2.037,0,0,1,1.931,1.4h4.308Z" transform="translate(-89.358 -146.203)"/>
            <rect id="Rectangle_337" data-name="Rectangle 337" width="9.677" height="1.286" transform="translate(9.971 9.214)"/>
            <rect id="Rectangle_338" data-name="Rectangle 338" width="13.963" height="1.286" transform="translate(5.685 11.56)"/>
            <rect id="Rectangle_339" data-name="Rectangle 339" width="13.963" height="1.286" transform="translate(5.685 13.928)"/>
            <rect id="Rectangle_340" data-name="Rectangle 340" width="9.677" height="1.286" transform="translate(9.937 17.921)"/>
            <rect id="Rectangle_341" data-name="Rectangle 341" width="13.963" height="1.286" transform="translate(5.651 20.267)"/>
            <rect id="Rectangle_342" data-name="Rectangle 342" width="13.963" height="1.286" transform="translate(5.651 22.636)"/>
          </g>
          <g id="Group_722" data-name="Group 722" transform="translate(130.529 64.962)">
            <path id="Path_688" data-name="Path 688" d="M179.267,78.28h-18.69a3.287,3.287,0,0,0-3.287,3.287v27.339a3.287,3.287,0,0,0,3.287,3.287h18.69a3.287,3.287,0,0,0,3.287-3.287V81.567A3.287,3.287,0,0,0,179.267,78.28Zm-.051,30.13H160.629V82.063h4.014a2.037,2.037,0,0,1,1.932-1.4h.994a2.251,2.251,0,0,1,2.184-1.717h.046a2.251,2.251,0,0,1,2.183,1.717h.995a2.037,2.037,0,0,1,1.931,1.4h4.308Z" transform="translate(-157.29 -78.28)"/>
            <rect id="Rectangle_343" data-name="Rectangle 343" width="9.677" height="1.286" transform="translate(9.97 9.213)"/>
            <rect id="Rectangle_344" data-name="Rectangle 344" width="13.963" height="1.286" transform="translate(5.684 11.559)"/>
            <rect id="Rectangle_345" data-name="Rectangle 345" width="13.963" height="1.286" transform="translate(5.684 13.928)"/>
            <rect id="Rectangle_346" data-name="Rectangle 346" width="9.677" height="1.286" transform="translate(9.936 17.921)"/>
            <rect id="Rectangle_347" data-name="Rectangle 347" width="13.963" height="1.286" transform="translate(5.65 20.267)"/>
            <rect id="Rectangle_348" data-name="Rectangle 348" width="13.963" height="1.286" transform="translate(5.65 22.635)"/>
          </g>
          <g id="Group_723" data-name="Group 723">
            <path id="Path_689" data-name="Path 689" d="M12.423,3.507h0C14.14.052,25.239.457,25.239.457V0H9.7a2.355,2.355,0,0,0-.31.519H0V5.466H9.546A2.869,2.869,0,0,0,12.423,3.507Z"/>
            <rect id="Rectangle_349" data-name="Rectangle 349" width="1.9" height="1.158" transform="translate(0.56)"/>
            <rect id="Rectangle_350" data-name="Rectangle 350" width="1.9" height="1.158" transform="translate(3.391)"/>
            <rect id="Rectangle_351" data-name="Rectangle 351" width="1.9" height="1.158" transform="translate(6.222)"/>
          </g>
          <g id="Group_724" data-name="Group 724" transform="translate(173.491)">
            <path id="Path_690" data-name="Path 690" d="M209.06,3.1A2.739,2.739,0,0,0,212,5.573h10.285V.626H212A2.739,2.739,0,0,0,209.06,3.1Z" transform="translate(-209.06 -0.107)"/>
            <rect id="Rectangle_352" data-name="Rectangle 352" width="1.9" height="1.158" transform="translate(2.463)"/>
            <rect id="Rectangle_353" data-name="Rectangle 353" width="1.9" height="1.158" transform="translate(5.294)"/>
            <rect id="Rectangle_354" data-name="Rectangle 354" width="1.9" height="1.158" transform="translate(8.125)"/>
            <rect id="Rectangle_355" data-name="Rectangle 355" width="1.9" height="1.158" transform="translate(10.957)"/>
          </g>
          <g id="Group_725" data-name="Group 725" transform="translate(39.545 29.404)">
            <path id="Path_691" data-name="Path 691" d="M71.537,58.016H51.86a2.511,2.511,0,1,0,0,4.947H71.69A2.867,2.867,0,0,0,74.567,61h0c1.716-3.456,12.815-3.051,12.815-3.051V53.588C73.244,53.234,71.537,58.016,71.537,58.016Z" transform="translate(-47.868 -38.518)"/>
            <rect id="Rectangle_356" data-name="Rectangle 356" width="1.9" height="9.454" transform="translate(3.512 10.683)"/>
            <rect id="Rectangle_357" data-name="Rectangle 357" width="1.9" height="9.454" transform="translate(6.344 10.683)"/>
            <rect id="Rectangle_358" data-name="Rectangle 358" width="1.9" height="9.454" transform="translate(9.175 10.683)"/>
            <rect id="Rectangle_359" data-name="Rectangle 359" width="1.9" height="9.454" transform="translate(12.006 10.683)"/>
            <rect id="Rectangle_360" data-name="Rectangle 360" width="1.9" height="9.454" transform="translate(14.837 10.683)"/>
            <rect id="Rectangle_361" data-name="Rectangle 361" width="1.9" height="9.454" transform="translate(17.668 10.683)"/>
            <rect id="Rectangle_362" data-name="Rectangle 362" width="1.9" height="9.454" transform="translate(20.499 10.683)"/>
            <path id="Path_692" data-name="Path 692" d="M72.072,41.273a4.921,4.921,0,0,0-4.422-3.529H60.286v.006s-7.673.585-12.63-2.318a16.865,16.865,0,0,0,.845,5.546,4.92,4.92,0,0,0,4.422,3.529h7.363V44.5s7.672-.585,12.63,2.317A16.876,16.876,0,0,0,72.072,41.273Z" transform="translate(-47.652 -35.432)"/>
          </g>
          <g id="Group_726" data-name="Group 726" transform="translate(99.209 170.415)">
            <path id="Path_693" data-name="Path 693" d="M146.078,219.344l3.29-3.29a5.935,5.935,0,1,0-1.241-1.241l-3.29,3.29-2.238.6-1.573,1.511,1.5,1.446h2.879l.073-.076Zm3.668-11.2a4.451,4.451,0,1,1,0,6.3A4.456,4.456,0,0,1,149.746,208.141Z" transform="translate(-123.204 -205.353)"/>
            <path id="Path_694" data-name="Path 694" d="M133.793,218.486l-2.288-.609-3.316-3.316.006-.006c-7.4-.528-7.566-1.57-7.566-1.57-.292-1.027.46-7.431.46-7.431s-2.409,7.265-1.2,8.4,7.038,1.864,7.038,1.864l-.006.006,3.316,3.316.609,2.287.259.26h5.933L136,220.7Z" transform="translate(-119.549 -205.387)"/>
          </g>
          <g id="Group_727" data-name="Group 727" transform="translate(18.711 134.019)">
            <path id="Path_695" data-name="Path 695" d="M36.484,185.055,23.077,197.94a1.725,1.725,0,0,0-.024,2.465l1.214,1.215a1.726,1.726,0,0,0,2.465-.025l12.825-13.342Z" transform="translate(-22.547 -165.505)"/>
            <path id="Path_696" data-name="Path 696" d="M61.288,163.235a5.931,5.931,0,0,0-8.962,7.722l-3.29,3.29-2.238.6-1.573,1.512,3,2.885,1.455-1.514.6-2.238,3.29-3.29a5.931,5.931,0,0,0,7.722-8.962Zm-1.048,7.344a4.452,4.452,0,1,1,0-6.3A4.457,4.457,0,0,1,60.24,170.579Z" transform="translate(-26.406 -161.496)"/>
            <path id="Path_697" data-name="Path 697" d="M57.847,193.8,40.2,176.839l-2.212-2.211L35.7,174.02,32.387,170.7l.006-.006c-7.4-.529-7.567-1.57-7.567-1.57-.292-1.027.46-7.431.46-7.431s-2.409,7.265-1.2,8.4,7.038,1.864,7.038,1.864l-.006.006,3.316,3.316.609,2.287,1.075,1.075,18.074,18.805a1.726,1.726,0,0,0,2.465.024l1.215-1.215A1.726,1.726,0,0,0,57.847,193.8Z" transform="translate(-22.751 -161.53)"/>
          </g>
          <path id="Path_698" data-name="Path 698" d="M102.647,206.477c.041-1.393.776-2.284,1.39-3.424a8.387,8.387,0,0,0,.929-3.739,5.635,5.635,0,0,0-3.711-5.93c-2.033-.785-4.145-.149-6.161.4-1.8-.488-3.685-1.046-5.517-.6a2.4,2.4,0,0,1-.6,2.469c-.6.719-2.273-.505-2.04,1.69.112,1.051-.772,1.432-1.724,1.254a7.139,7.139,0,0,0,.012.715,8.388,8.388,0,0,0,.929,3.739c.614,1.14,1.349,2.031,1.39,3.424.041,1.366-.778,5.248-.654,8.465a24.7,24.7,0,0,0,.581,4.616h2.545a15.623,15.623,0,0,1,.31-1.921,13.023,13.023,0,0,1,2.7-5.561,2.845,2.845,0,0,1,4.138,0,13.025,13.025,0,0,1,2.7,5.561,15.784,15.784,0,0,1,.31,1.921h2.544a24.633,24.633,0,0,0,.581-4.616C103.424,211.725,102.605,207.843,102.647,206.477Z" transform="translate(-14.497 -32.84)"/>
          <g id="Group_728" data-name="Group 728" transform="translate(139.067 181.444)">
            <path id="Path_699" data-name="Path 699" d="M175.429,218.644a8.479,8.479,0,0,0-7.85,5.275h13.255v-5.275Z" transform="translate(-167.579 -218.644)"/>
            <path id="Path_700" data-name="Path 700" d="M193.452,218.644h-5.4v5.275H201.3A8.479,8.479,0,0,0,193.452,218.644Z" transform="translate(-171.061 -218.644)"/>
          </g>
          <g id="Group_729" data-name="Group 729" transform="translate(35.342 174.797)">
            <path id="Path_701" data-name="Path 701" d="M64.565,210.634H45.875a3.287,3.287,0,0,0-3.287,3.287v8.635h3.339v-8.139h4.015a2.036,2.036,0,0,1,1.931-1.4h1a2.251,2.251,0,0,1,2.183-1.717H55.1a2.251,2.251,0,0,1,2.183,1.717h1a2.036,2.036,0,0,1,1.931,1.4h4.309v8.139h3.339v-8.635A3.287,3.287,0,0,0,64.565,210.634Z" transform="translate(-42.588 -210.634)"/>
            <rect id="Rectangle_363" data-name="Rectangle 363" width="9.677" height="1.286" transform="translate(9.971 9.214)"/>
            <rect id="Rectangle_364" data-name="Rectangle 364" width="13.963" height="0.362" transform="translate(5.685 11.56)"/>
          </g>
          <g id="Group_730" data-name="Group 730" transform="translate(0 170.052)">
            <path id="Path_702" data-name="Path 702" d="M11.692,224.195H27.229v-3.909C15.988,220,12.607,222.967,11.692,224.195Z" transform="translate(-1.989 -207.528)"/>
            <rect id="Rectangle_365" data-name="Rectangle 365" width="1.9" height="8.296" transform="translate(0.56 8.371)"/>
            <rect id="Rectangle_366" data-name="Rectangle 366" width="1.9" height="8.296" transform="translate(3.391 8.371)"/>
            <rect id="Rectangle_367" data-name="Rectangle 367" width="1.9" height="8.296" transform="translate(6.222 8.371)"/>
            <path id="Path_703" data-name="Path 703" d="M10.142,208.444a4.92,4.92,0,0,0-4.422-3.528H0v6.709c2.528,0,7.447.294,10.986,2.365A16.882,16.882,0,0,0,10.142,208.444Z" transform="translate(0 -204.916)"/>
          </g>
          <g id="Group_731" data-name="Group 731" transform="translate(172.442 167.741)">
            <rect id="Rectangle_368" data-name="Rectangle 368" width="1.9" height="8.296" transform="translate(3.512 10.682)"/>
            <rect id="Rectangle_369" data-name="Rectangle 369" width="1.9" height="8.296" transform="translate(6.343 10.682)"/>
            <rect id="Rectangle_370" data-name="Rectangle 370" width="1.9" height="8.296" transform="translate(9.174 10.682)"/>
            <rect id="Rectangle_371" data-name="Rectangle 371" width="1.9" height="8.296" transform="translate(12.005 10.682)"/>
            <path id="Path_704" data-name="Path 704" d="M220.429,204.448s-7.673.585-12.63-2.317a16.875,16.875,0,0,0,.844,5.545,4.92,4.92,0,0,0,4.422,3.529h7.363V211.2s.631-.047,1.644-.048v-6.709h-1.644Z" transform="translate(-207.796 -202.131)"/>
          </g>
          <g id="Group_732" data-name="Group 732" transform="translate(130.385 115.445)">
            <path id="Path_705" data-name="Path 705" d="M181,161.7H161.323a2.511,2.511,0,1,0,0,4.947h19.831a2.869,2.869,0,0,0,2.877-1.96v0c1.716-3.456,12.816-3.051,12.816-3.051v-4.366C182.708,156.916,181,161.7,181,161.7Z" transform="translate(-157.331 -142.2)"/>
            <rect id="Rectangle_372" data-name="Rectangle 372" width="1.9" height="9.454" transform="translate(3.512 10.683)"/>
            <rect id="Rectangle_373" data-name="Rectangle 373" width="1.9" height="9.454" transform="translate(6.343 10.683)"/>
            <rect id="Rectangle_374" data-name="Rectangle 374" width="1.9" height="9.454" transform="translate(9.174 10.683)"/>
            <rect id="Rectangle_375" data-name="Rectangle 375" width="1.9" height="9.454" transform="translate(12.005 10.683)"/>
            <rect id="Rectangle_376" data-name="Rectangle 376" width="1.9" height="9.454" transform="translate(14.836 10.683)"/>
            <rect id="Rectangle_377" data-name="Rectangle 377" width="1.9" height="9.454" transform="translate(17.667 10.683)"/>
            <rect id="Rectangle_378" data-name="Rectangle 378" width="1.9" height="9.454" transform="translate(20.499 10.683)"/>
            <path id="Path_706" data-name="Path 706" d="M181.535,144.954a4.919,4.919,0,0,0-4.422-3.528h-7.363v0s-7.673.586-12.63-2.317a16.88,16.88,0,0,0,.844,5.546,4.919,4.919,0,0,0,4.422,3.528h7.363v0s7.673-.586,12.63,2.317A16.88,16.88,0,0,0,181.535,144.954Z" transform="translate(-157.116 -139.114)"/>
          </g>
          <g id="Group_733" data-name="Group 733" transform="translate(0 87.672)">
            <path id="Path_707" data-name="Path 707" d="M30.643,107.68c-3.724-.431-11.613-1.406-12.659-2.034a3.779,3.779,0,0,1-3.061,1.333,3.779,3.779,0,0,1-3.061-1.333c-.976.586-7.915,1.475-11.862,1.941v.05C6.926,107.286,24.617,107.3,30.643,107.68Z" transform="translate(0 -105.646)"/>
            <path id="Path_708" data-name="Path 708" d="M32.58,108.255s-.764-.083-1.937-.219c-6.026-.38-23.717-.394-30.643-.043v.812a94.721,94.721,0,0,0,14.923,1.4A92.294,92.294,0,0,0,32.58,108.255Z" transform="translate(0 -106.002)"/>
            <path id="Path_709" data-name="Path 709" d="M14.923,120.1s12.781.369,17.742-11.519c-.535,1.134-8.274,7.189-17.742,7.189A27.816,27.816,0,0,1,0,111v2.3C5.824,120.362,14.923,120.1,14.923,120.1Z" transform="translate(0 -106.145)"/>
            <path id="Path_710" data-name="Path 710" d="M39.394,108.455a.249.249,0,0,1-.024.085c.015-.036.032-.068.046-.1Z" transform="translate(-6.698 -106.121)"/>
            <path id="Path_711" data-name="Path 711" d="M39.362,108.577l.007-.015Z" transform="translate(-6.697 -106.142)"/>
            <path id="Path_712" data-name="Path 712" d="M32.7,108.459c-.235.209-7.565,6.664-17.773,6.639A28.177,28.177,0,0,1,0,110.54v.438a27.816,27.816,0,0,0,14.923,4.77C24.717,115.748,32.661,109.269,32.7,108.459Z" transform="translate(0 -106.125)"/>
          </g>
          <path id="Path_713" data-name="Path 713" d="M5.629,68.594A28.68,28.68,0,0,1,0,68.039V92.8C3.612,87.79,6.886,80.12,7.494,68.533,6.88,68.572,6.259,68.594,5.629,68.594Z" transform="translate(0 -11.576)"/>
          <g id="Group_734" data-name="Group 734" transform="translate(98.266 20.317)">
            <path id="Path_714" data-name="Path 714" d="M153.065,30.251c-6.749,0-12.708-2.282-16.311-5.769h-.135c-3.6,3.487-9.562,5.769-16.31,5.769-.64,0-1.272-.022-1.9-.062,1.458,27.8,18.259,33.062,18.259,33.062s16.8-5.265,18.259-33.061C154.315,30.23,153.694,30.251,153.065,30.251Zm-8.879,8.522a6.382,6.382,0,0,1-.708,2.846,5.63,5.63,0,0,0-1.058,2.607c-.032,1.04.592,4,.5,6.445a16.384,16.384,0,0,1-.91,5.092.722.722,0,0,1-1.4-.259,12.505,12.505,0,0,0-.3-2.782,9.9,9.9,0,0,0-2.056-4.233,2.165,2.165,0,0,0-3.149,0,9.9,9.9,0,0,0-2.056,4.233,12.505,12.505,0,0,0-.3,2.782.722.722,0,0,1-1.4.259,16.385,16.385,0,0,1-.91-5.092c-.095-2.449.529-5.4.5-6.445a5.63,5.63,0,0,0-1.058-2.607,6.383,6.383,0,0,1-.708-2.846,4.289,4.289,0,0,1,2.826-4.514c1.548-.6,3.155-.114,4.69.3,1.535-.416,3.143-.9,4.69-.3A4.289,4.289,0,0,1,144.187,38.773Z" transform="translate(-118.412 -24.482)"/>
          </g>
          <g id="Group_735" data-name="Group 735" transform="translate(105.509 116.21)">
            <path id="Path_715" data-name="Path 715" d="M145.576,143.1a12.6,12.6,0,0,1-8.677-3.069h-.072a12.6,12.6,0,0,1-8.677,3.069q-.51,0-1.009-.033c.776,14.788,9.714,17.589,9.714,17.589s8.938-2.8,9.714-17.588C146.242,143.093,145.911,143.1,145.576,143.1Zm-4.724,4.534a3.4,3.4,0,0,1-.376,1.514,2.988,2.988,0,0,0-.563,1.387c-.017.554.315,2.125.265,3.428a8.7,8.7,0,0,1-.485,2.709.384.384,0,0,1-.744-.137,6.721,6.721,0,0,0-.163-1.48,5.274,5.274,0,0,0-1.094-2.252,1.151,1.151,0,0,0-1.675,0,5.276,5.276,0,0,0-1.095,2.252,6.722,6.722,0,0,0-.162,1.48.384.384,0,0,1-.745.137,8.72,8.72,0,0,1-.484-2.709c-.051-1.3.28-2.875.265-3.428a3,3,0,0,0-.563-1.387,3.391,3.391,0,0,1-.376-1.514,2.28,2.28,0,0,1,1.5-2.4,3.967,3.967,0,0,1,2.495.161,3.97,3.97,0,0,1,2.5-.161A2.281,2.281,0,0,1,140.853,147.638Z" transform="translate(-127.141 -140.036)"/>
          </g>
          <path id="Path_716" data-name="Path 716" d="M.79,49.049a17.3,17.3,0,0,1,.421-3.84,13.681,13.681,0,0,1,2.837-5.842,2.989,2.989,0,0,1,4.348,0,13.681,13.681,0,0,1,2.837,5.842,17.3,17.3,0,0,1,.421,3.84,1,1,0,0,0,1.933.356,22.619,22.619,0,0,0,1.257-7.026c.13-3.381-.729-7.46-.687-8.9.044-1.463.816-2.4,1.461-3.6a8.824,8.824,0,0,0,.976-3.929,5.92,5.92,0,0,0-3.9-6.231c-2.136-.825-4.355-.156-6.473.417-2.035-.551-4.163-1.186-6.221-.5v3.908A3.627,3.627,0,0,0,1.316,20.6c.027,4.051,4.578,4.051,4.578,4.051s-4.55,0-4.578,4.051A3.628,3.628,0,0,0,0,25.755V32.1a1.851,1.851,0,0,0,1.316-1.837C1.329,32.287,3.6,32.287,3.6,32.287s-2.275,0-2.289,2.026A1.85,1.85,0,0,0,0,32.475V50.038A.98.98,0,0,0,.79,49.049Zm5.1-21.68c.014,2.025,2.29,2.025,2.29,2.025s-2.275,0-2.29,2.026C5.88,29.394,3.6,29.394,3.6,29.394S5.88,29.394,5.894,27.369Z" transform="translate(0 -3.291)"/>
          <g id="Group_736" data-name="Group 736" transform="translate(145.258 145.504)">
            <path id="Path_717" data-name="Path 717" d="M191.9,175.722c-2.136-.826-4.355-.157-6.473.417-2.118-.573-4.337-1.242-6.473-.417a5.92,5.92,0,0,0-3.9,6.231,8.814,8.814,0,0,0,.977,3.929c.645,1.2,1.417,2.134,1.461,3.6.042,1.436-.817,5.514-.687,8.9a22.629,22.629,0,0,0,1.257,7.027,1,1,0,0,0,1.933-.357,17.352,17.352,0,0,1,.421-3.84,13.686,13.686,0,0,1,2.837-5.842,2.989,2.989,0,0,1,4.348,0,13.678,13.678,0,0,1,2.838,5.842,17.351,17.351,0,0,1,.42,3.84,1,1,0,0,0,1.934.357,22.65,22.65,0,0,0,1.256-7.027c.13-3.381-.729-7.46-.686-8.9.043-1.463.815-2.4,1.461-3.6a8.813,8.813,0,0,0,.976-3.929A5.919,5.919,0,0,0,191.9,175.722Zm-15.957,4.924s4.551,0,4.578-4.051c.027,4.051,4.578,4.051,4.578,4.051s-4.551,0-4.578,4.051C180.5,180.646,175.947,180.646,175.947,180.646Zm4.578,9.66c-.014-2.026-2.289-2.026-2.289-2.026s2.275,0,2.289-2.025c.014,2.025,2.289,2.025,2.289,2.025S180.539,188.281,180.525,190.307Zm4.578-2.893c-.014-2.026-2.29-2.026-2.29-2.026s2.275,0,2.29-2.026c.013,2.026,2.289,2.026,2.289,2.026S185.117,185.388,185.1,187.414Z" transform="translate(-175.039 -175.335)"/>
          </g>
          <g id="Group_737" data-name="Group 737" transform="translate(102.757 66.557)">
            <path id="Path_718" data-name="Path 718" d="M140.689,80.589c-2.136-.825-4.355-.156-6.473.417-2.118-.573-4.337-1.241-6.473-.417a5.921,5.921,0,0,0-3.9,6.231,8.807,8.807,0,0,0,.977,3.928c.645,1.2,1.417,2.134,1.461,3.6.043,1.436-.817,5.515-.687,8.9a22.619,22.619,0,0,0,1.257,7.027,1,1,0,0,0,1.933-.357,17.343,17.343,0,0,1,.421-3.839,13.688,13.688,0,0,1,2.837-5.843,2.991,2.991,0,0,1,4.348,0,13.681,13.681,0,0,1,2.838,5.843,17.293,17.293,0,0,1,.42,3.839,1,1,0,0,0,1.934.357,22.642,22.642,0,0,0,1.256-7.027c.13-3.38-.729-7.459-.686-8.9.043-1.463.815-2.4,1.461-3.6a8.818,8.818,0,0,0,.977-3.928A5.921,5.921,0,0,0,140.689,80.589Zm-15.957,4.924s4.55,0,4.578-4.051c.027,4.051,4.578,4.051,4.578,4.051s-4.551,0-4.578,4.051C129.283,85.513,124.733,85.513,124.733,85.513Zm4.578,9.661c-.013-2.026-2.289-2.026-2.289-2.026s2.275,0,2.289-2.026c.014,2.026,2.289,2.026,2.289,2.026S129.324,93.149,129.31,95.175Zm4.578-2.894c-.014-2.026-2.29-2.026-2.29-2.026s2.275,0,2.29-2.025c.013,2.025,2.289,2.025,2.289,2.025S133.9,90.255,133.889,92.281Z" transform="translate(-123.824 -80.203)"/>
          </g>
          <path id="Path_719" data-name="Path 719" d="M213.974,128.822l-27.2.15c-1.033.006-1.887,1.278-2.149,3l-1.509.008,0-.314a.532.532,0,0,0-.535-.529.526.526,0,0,0-.516.466l-3.093.017a1.441,1.441,0,0,0-1.355.981l-13.738.076a4.31,4.31,0,0,1-2.54.717l0,.375,16.317-.09a1.446,1.446,0,0,0,1.33.862l3.08-.017v.034a.533.533,0,0,0,1.066-.007l0-.417,1.492-.008c.261,1.773,1.146,3.086,2.2,3.08l27.2-.151.009,1.724a.727.727,0,0,0,.14.423V126.588a.726.726,0,0,0-.2.51Z" transform="translate(-27.45 -21.538)"/>
          <g id="Group_738" data-name="Group 738" transform="translate(21.839 12)">
            <path id="Path_720" data-name="Path 720" d="M37.219,78.331a.59.59,0,0,0-.593-.588l-2.3.013-.051-9.186,4.463-.025a.73.73,0,1,0-.008-1.461L37,67.1l-.151-27.2c-.006-1.033-1.278-1.887-3-2.149l-.008-1.51.314,0a.533.533,0,0,0,.529-.535.526.526,0,0,0-.466-.516L34.2,32.093a1.442,1.442,0,0,0-.981-1.355L33.146,17a4.317,4.317,0,0,1-.716-2.54l-.375,0,.09,16.317a1.446,1.446,0,0,0-.863,1.33l.017,3.08h-.034a.533.533,0,0,0,.006,1.066l.417,0,.008,1.492c-1.774.261-3.086,1.146-3.08,2.2l.15,27.2-1.724.009a.73.73,0,0,0,.008,1.461l4.463-.025.051,9.186-2.3.012a.591.591,0,0,0,.007,1.182l7.362-.041A.59.59,0,0,0,37.219,78.331Z" transform="translate(-26.317 -14.46)"/>
          </g>
          <g id="Group_739" data-name="Group 739" transform="translate(82.688 29.76)">
            <path id="Path_721" data-name="Path 721" d="M101.883,36.5a.589.589,0,0,0,.593.587l2.3-.012.051,9.186-4.463.025a.73.73,0,0,0,.008,1.461l1.724-.01.151,27.2c0,1.033,1.277,1.887,3,2.149l.008,1.51-.314,0a.528.528,0,0,0-.064,1.051l.017,3.093a1.441,1.441,0,0,0,.981,1.355l.076,13.738a4.317,4.317,0,0,1,.716,2.54l.375,0-.09-16.318a1.444,1.444,0,0,0,.863-1.329l-.017-3.08h.034a.533.533,0,0,0-.007-1.066l-.417,0-.008-1.492c1.773-.261,3.086-1.146,3.08-2.2l-.151-27.2,1.724-.009a.73.73,0,1,0-.008-1.461l-4.463.025-.051-9.186,2.3-.013a.59.59,0,1,0-.007-1.181l-7.363.041A.591.591,0,0,0,101.883,36.5Z" transform="translate(-99.641 -35.861)"/>
          </g>
          <g id="Group_740" data-name="Group 740" transform="translate(58.239 92.556)">
            <path id="Path_722" data-name="Path 722" d="M81.081,175.4a.59.59,0,0,0-.594-.587l-2.3.012-.051-9.186,4.464-.025a.73.73,0,1,0-.008-1.46l-1.724.009-.151-27.2c-.006-1.032-1.278-1.887-3-2.149l-.008-1.51.314,0a.533.533,0,0,0,.529-.536.527.527,0,0,0-.466-.516l-.017-3.093a1.44,1.44,0,0,0-.981-1.354l-.076-13.738a4.309,4.309,0,0,1-.716-2.54l-.375,0,.09,16.318a1.445,1.445,0,0,0-.863,1.33l.017,3.079h-.034a.533.533,0,0,0,.006,1.066l.417,0,.008,1.492c-1.773.261-3.085,1.147-3.08,2.2l.15,27.2-1.724.009a.73.73,0,0,0,.008,1.461l4.463-.024.051,9.185-2.3.013a.59.59,0,1,0,.007,1.181L80.493,176A.591.591,0,0,0,81.081,175.4Z" transform="translate(-70.179 -111.532)"/>
          </g>
          <g id="Group_741" data-name="Group 741" transform="translate(180.301 127.289)">
            <path id="Path_723" data-name="Path 723" d="M217.288,160.826a11.086,11.086,0,0,0,.7,3.556h5.7v-11a6.537,6.537,0,0,0-2,.419A6.671,6.671,0,0,0,217.288,160.826Z" transform="translate(-217.266 -153.386)"/>
            <path id="Path_724" data-name="Path 724" d="M220.356,171.891c.048,1.618-.92,6.214-.773,10.023A25.5,25.5,0,0,0,221,189.831a1.123,1.123,0,0,0,2.178-.4,19.511,19.511,0,0,1,.474-4.326c.091-.4.214-.836.355-1.286v-15.2h-4.851A6.562,6.562,0,0,1,220.356,171.891Z" transform="translate(-217.587 -155.978)"/>
          </g>
          <g id="Group_742" data-name="Group 742" transform="translate(183.847 89.613)">
            <path id="Path_725" data-name="Path 725" d="M221.717,108.316c.043,0,.785-.085,1.917-.217A11.261,11.261,0,0,0,221.717,108.316Z" transform="translate(-221.569 -108.004)"/>
            <path id="Path_726" data-name="Path 726" d="M221.706,108.36h0Z" transform="translate(-221.567 -108.049)"/>
            <path id="Path_727" data-name="Path 727" d="M224.834,108.035v-.05l-.807.095C224.274,108.064,224.548,108.049,224.834,108.035Z" transform="translate(-221.962 -107.985)"/>
            <path id="Path_728" data-name="Path 728" d="M221.716,108.306l-.007,0c.912.2,1.825.386,2.731.549v-.812c-.286.014-.56.029-.807.045C222.5,108.221,221.759,108.3,221.716,108.306Z" transform="translate(-221.568 -107.995)"/>
            <path id="Path_729" data-name="Path 729" d="M221.576,108.468l-.037-.032a18.69,18.69,0,0,0,2.872,4.843v-2.3C222.648,109.791,221.609,108.771,221.576,108.468Z" transform="translate(-221.539 -108.062)"/>
            <path id="Path_730" data-name="Path 730" d="M224.419,110.981v-.438a23.966,23.966,0,0,1-2.836-2.069C221.616,108.778,222.655,109.8,224.419,110.981Z" transform="translate(-221.546 -108.068)"/>
          </g>
          <g id="Group_743" data-name="Group 743" transform="translate(72.693 101.075)">
            <path id="Path_731" data-name="Path 731" d="M87.774,124.468c.043,0,.785-.085,1.917-.217A11.35,11.35,0,0,0,87.774,124.468Z" transform="translate(-87.626 -122.215)"/>
            <path id="Path_732" data-name="Path 732" d="M87.763,124.513h0Z" transform="translate(-87.624 -122.26)"/>
            <path id="Path_733" data-name="Path 733" d="M121.533,123.833c-3.723-.432-11.612-1.407-12.658-2.035a4.18,4.18,0,0,1-6.122,0c-1.047.629-8.952,1.6-12.669,2.036C96.33,123.438,115.259,123.437,121.533,123.833Z" transform="translate(-88.019 -121.798)"/>
            <path id="Path_734" data-name="Path 734" d="M123.076,124.407s-.763-.082-1.937-.218c-6.274-.4-25.2-.4-31.449,0-1.132.131-1.874.212-1.917.217l-.007,0a92.342,92.342,0,0,0,17.654,1.952A92.245,92.245,0,0,0,123.076,124.407Z" transform="translate(-87.625 -122.154)"/>
            <path id="Path_735" data-name="Path 735" d="M123.164,124.608c-.035.81-7.979,7.289-17.773,7.289-9.758,0-17.667-6.429-17.758-7.276l-.037-.032c4.924,12.015,17.795,11.64,17.795,11.64s12.871.375,17.8-11.64Z" transform="translate(-87.596 -122.273)"/>
            <path id="Path_736" data-name="Path 736" d="M105.4,131.9c9.794,0,17.738-6.479,17.773-7.289-.235.208-7.565,6.663-17.773,6.638-10.1.025-17.381-6.293-17.758-6.626C87.731,125.472,95.641,131.9,105.4,131.9Z" transform="translate(-87.603 -122.277)"/>
          </g>
          <path id="Path_737" data-name="Path 737" d="M208.285,61.755h-.051c-3.6,3.487-9.562,5.77-16.31,5.77-.64,0-1.272-.022-1.9-.063,1.457,27.8,18.259,33.062,18.259,33.062s5.713-1.793,10.765-8.8V66.97a21.419,21.419,0,0,1-10.681-5.215Zm4.69,9.777a4.29,4.29,0,0,1,2.826,4.514,6.393,6.393,0,0,1-.708,2.846,5.63,5.63,0,0,0-1.058,2.607c-.032,1.041.592,4,.5,6.445a16.385,16.385,0,0,1-.91,5.092.722.722,0,0,1-1.4-.259,12.567,12.567,0,0,0-.3-2.782,9.909,9.909,0,0,0-2.056-4.233,2.166,2.166,0,0,0-3.15,0A9.916,9.916,0,0,0,204.654,90a12.567,12.567,0,0,0-.305,2.782.722.722,0,0,1-1.4.259,16.41,16.41,0,0,1-.911-5.092c-.095-2.449.529-5.4.5-6.445a5.63,5.63,0,0,0-1.058-2.607,6.382,6.382,0,0,1-.708-2.846,4.289,4.289,0,0,1,2.826-4.514c1.548-.6,3.155-.114,4.69.3C209.819,71.418,211.427,70.934,212.975,71.532Z" transform="translate(-32.331 -10.507)"/>
          <path id="Path_738" data-name="Path 738" d="M219.995,26.02a8.823,8.823,0,0,0,.976,3.929c.646,1.2,1.417,2.134,1.461,3.6.042,1.436-.817,5.514-.687,8.9A22.619,22.619,0,0,0,223,49.467a.971.971,0,0,0,1.143.632V32.537a3.215,3.215,0,0,0-.973-.188,3.2,3.2,0,0,0,.973-.188V25.817a5.806,5.806,0,0,0-3.262-1.1,5.806,5.806,0,0,0,3.262-1.1V19.7c-.084.027-.168.054-.251.085A5.92,5.92,0,0,0,219.995,26.02Z" transform="translate(-37.426 -3.352)"/>
        </g>
        <g id="Group_775" data-name="Group 775" transform="translate(186.719)">
          <path id="Path_739" data-name="Path 739" d="M225.594,139.462a.73.73,0,0,0,.726-.734l-.025-4.463,9.186-.051.012,2.3a.591.591,0,1,0,1.182-.007l-.041-7.363a.59.59,0,0,0-1.181.007l.013,2.3-9.186.051-.025-4.463a.73.73,0,0,0-1.256-.5v12.617A.731.731,0,0,0,225.594,139.462Z" transform="translate(-225 -21.492)"/>
          <g id="Group_745" data-name="Group 745" transform="translate(98.214)">
            <path id="Path_740" data-name="Path 740" d="M357.287,3.912,343.88,16.8a1.726,1.726,0,0,0-.025,2.465l1.215,1.215a1.726,1.726,0,0,0,2.465-.025L360.359,7.109Z" transform="translate(-343.35 -0.666)"/>
            <path id="Path_741" data-name="Path 741" d="M370.719,0H367.84l1.5,1.438Z" transform="translate(-347.517)"/>
            <path id="Path_742" data-name="Path 742" d="M377.364,19.62a1.725,1.725,0,0,0,2.465.024l1.215-1.215a1.725,1.725,0,0,0-.025-2.464L364.408,0h-5.933l.816.815Z" transform="translate(-345.924)"/>
          </g>
          <g id="Group_746" data-name="Group 746" transform="translate(43.634 58.195)">
            <path id="Path_743" data-name="Path 743" d="M291.516,93.685,278.109,106.57a1.726,1.726,0,0,0-.024,2.465l1.215,1.215a1.726,1.726,0,0,0,2.465-.025l12.824-13.342Z" transform="translate(-277.58 -74.135)"/>
            <path id="Path_744" data-name="Path 744" d="M316.321,71.865a5.931,5.931,0,0,0-8.962,7.722l-3.29,3.29-2.238.6-1.573,1.511,3,2.885,1.455-1.514.6-2.238,3.29-3.29a5.931,5.931,0,0,0,7.723-8.963Zm-1.049,7.344a4.451,4.451,0,1,1,0-6.3A4.456,4.456,0,0,1,315.272,79.209Z" transform="translate(-281.438 -70.126)"/>
            <path id="Path_745" data-name="Path 745" d="M312.88,102.429l-17.646-16.96-2.212-2.211-2.287-.609-3.316-3.316.006-.006c-7.4-.528-7.567-1.57-7.567-1.57-.292-1.027.46-7.431.46-7.431s-2.409,7.265-1.2,8.4,7.038,1.864,7.038,1.864l-.006.006,3.316,3.316.609,2.287,1.075,1.075,18.074,18.805a1.726,1.726,0,0,0,2.466.024l1.214-1.215A1.726,1.726,0,0,0,312.88,102.429Z" transform="translate(-277.784 -70.16)"/>
          </g>
          <path id="Path_746" data-name="Path 746" d="M315.388,1.733A17.234,17.234,0,0,1,315.478,0h-2.545a16.849,16.849,0,0,0,.616,2.072A.948.948,0,0,0,315.388,1.733Z" transform="translate(-239.961)"/>
          <path id="Path_747" data-name="Path 747" d="M330.172,2.072A16.7,16.7,0,0,0,330.787,0h-2.544a17.215,17.215,0,0,1,.09,1.733A.949.949,0,0,0,330.172,2.072Z" transform="translate(-242.566)"/>
          <path id="Path_748" data-name="Path 748" d="M419.158,23.4c-2.033-.786-4.145-.149-6.161.4-1.8-.489-3.685-1.046-5.517-.6a2.4,2.4,0,0,1-.6,2.469c-.6.719-2.273-.5-2.04,1.69.112,1.051-.772,1.433-1.724,1.254a7.142,7.142,0,0,0,.012.716,8.393,8.393,0,0,0,.929,3.739c.614,1.139,1.349,2.031,1.39,3.423.041,1.367-.778,5.249-.654,8.465a21.537,21.537,0,0,0,1.2,6.688.949.949,0,0,0,1.84-.339,16.434,16.434,0,0,1,.4-3.654,13.016,13.016,0,0,1,2.7-5.56,2.845,2.845,0,0,1,4.138,0,13.018,13.018,0,0,1,2.7,5.56,16.539,16.539,0,0,1,.4,3.654.949.949,0,0,0,1.84.339,21.539,21.539,0,0,0,1.2-6.688c.125-3.217-.695-7.1-.653-8.465.042-1.393.776-2.284,1.39-3.423a8.393,8.393,0,0,0,.929-3.739A5.635,5.635,0,0,0,419.158,23.4Z" transform="translate(-255.303 -3.919)"/>
          <path id="Path_749" data-name="Path 749" d="M369.546,170.689c-2.033-.785-4.145-.149-6.161.4-1.8-.488-3.685-1.046-5.517-.6a2.4,2.4,0,0,1-.6,2.47c-.6.719-2.273-.505-2.041,1.69.112,1.051-.772,1.433-1.724,1.254a7.146,7.146,0,0,0,.012.716,8.386,8.386,0,0,0,.929,3.739c.614,1.14,1.349,2.031,1.39,3.423.041,1.367-.778,5.249-.653,8.466a21.514,21.514,0,0,0,1.2,6.688.949.949,0,0,0,1.84-.339,16.474,16.474,0,0,1,.4-3.654,13.02,13.02,0,0,1,2.7-5.561,2.844,2.844,0,0,1,4.137,0,13.02,13.02,0,0,1,2.7,5.561,16.528,16.528,0,0,1,.4,3.654.949.949,0,0,0,1.84.339,21.543,21.543,0,0,0,1.2-6.688c.124-3.217-.694-7.1-.653-8.466.042-1.393.776-2.283,1.39-3.423a8.388,8.388,0,0,0,.929-3.739A5.634,5.634,0,0,0,369.546,170.689Z" transform="translate(-246.863 -28.978)"/>
          <g id="Group_747" data-name="Group 747" transform="translate(0 127.273)">
            <path id="Path_750" data-name="Path 750" d="M227.4,160.652h5.789l.827,3.726h7.27a11.109,11.109,0,0,0,.7-3.556,6.67,6.67,0,0,0-4.394-7.021c-2.407-.929-4.907-.176-7.293.47a17,17,0,0,0-5.291-.889v11h1.568Z" transform="translate(-225 -153.367)"/>
            <path id="Path_751" data-name="Path 751" d="M232.74,177.757a15.417,15.417,0,0,1,3.2,6.582,19.512,19.512,0,0,1,.474,4.326,1.123,1.123,0,0,0,2.178.4,25.5,25.5,0,0,0,1.416-7.917c.147-3.809-.822-8.4-.773-10.023a6.562,6.562,0,0,1,1.2-3.273h-7.558l-.828-3.726h-3.581l-.828,3.726H225v15.2a14.408,14.408,0,0,1,2.842-5.3A3.367,3.367,0,0,1,232.74,177.757Z" transform="translate(-225 -155.198)"/>
          </g>
          <g id="Group_748" data-name="Group 748" transform="translate(138.436)">
            <path id="Path_752" data-name="Path 752" d="M391.818,3.378a8.481,8.481,0,0,0,8.481,8.481h5.4V0H392.449a8.447,8.447,0,0,0-.632,3.207Z" transform="translate(-391.818)"/>
            <path id="Path_753" data-name="Path 753" d="M418.452,11.859a8.48,8.48,0,0,0,8.481-8.481V3.207A8.447,8.447,0,0,0,426.3,0H413.047V11.859Z" transform="translate(-395.43)"/>
          </g>
          <g id="Group_749" data-name="Group 749" transform="translate(26.417 103.108)">
            <path id="Path_754" data-name="Path 754" d="M273.966,138.133v-5.4a8.481,8.481,0,0,0-8.481-8.481h-.171a8.48,8.48,0,0,0-8.481,8.481v5.4Z" transform="translate(-256.833 -124.247)"/>
            <path id="Path_755" data-name="Path 755" d="M273.966,150.881v-5.4H256.833v5.4a8.48,8.48,0,0,0,8.481,8.481h.171A8.481,8.481,0,0,0,273.966,150.881Z" transform="translate(-256.833 -127.859)"/>
          </g>
          <g id="Group_750" data-name="Group 750" transform="translate(66.62 8.448)">
            <path id="Path_756" data-name="Path 756" d="M317.6,10.18h-4.8a7.527,7.527,0,0,0-7.527,7.527v.152a7.527,7.527,0,0,0,7.527,7.527h4.8Z" transform="translate(-305.278 -10.18)"/>
            <path id="Path_757" data-name="Path 757" d="M328.915,10.18h-4.8V25.386h4.8a7.527,7.527,0,0,0,7.527-7.527v-.152A7.527,7.527,0,0,0,328.915,10.18Z" transform="translate(-308.483 -10.18)"/>
          </g>
          <g id="Group_751" data-name="Group 751" transform="translate(35.342)">
            <path id="Path_758" data-name="Path 758" d="M270.875,21.991h18.69a3.287,3.287,0,0,0,3.288-3.287V0h-3.339V18.209H270.927V0h-3.339V18.7A3.287,3.287,0,0,0,270.875,21.991Z" transform="translate(-267.588)"/>
            <rect id="Rectangle_379" data-name="Rectangle 379" width="13.963" height="0.924" transform="translate(5.685)"/>
            <rect id="Rectangle_380" data-name="Rectangle 380" width="13.963" height="1.286" transform="translate(5.685 2.006)"/>
            <rect id="Rectangle_381" data-name="Rectangle 381" width="9.677" height="1.286" transform="translate(9.937 5.999)"/>
            <rect id="Rectangle_382" data-name="Rectangle 382" width="13.963" height="1.286" transform="translate(5.651 8.345)"/>
            <rect id="Rectangle_383" data-name="Rectangle 383" width="13.963" height="1.286" transform="translate(5.651 10.714)"/>
          </g>
          <g id="Group_752" data-name="Group 752" transform="translate(74.155 121.328)">
            <path id="Path_759" data-name="Path 759" d="M336.336,146.2H317.645a3.287,3.287,0,0,0-3.287,3.287v27.339a3.287,3.287,0,0,0,3.287,3.287h18.691a3.287,3.287,0,0,0,3.287-3.287V149.49A3.287,3.287,0,0,0,336.336,146.2Zm-.051,30.131H317.7V149.986h4.015a2.037,2.037,0,0,1,1.931-1.4h.995a2.251,2.251,0,0,1,2.183-1.717h.046a2.251,2.251,0,0,1,2.184,1.717h.995a2.037,2.037,0,0,1,1.931,1.4h4.308Z" transform="translate(-314.358 -146.203)"/>
            <rect id="Rectangle_384" data-name="Rectangle 384" width="9.677" height="1.286" transform="translate(9.971 9.214)"/>
            <rect id="Rectangle_385" data-name="Rectangle 385" width="13.963" height="1.286" transform="translate(5.685 11.56)"/>
            <rect id="Rectangle_386" data-name="Rectangle 386" width="13.963" height="1.286" transform="translate(5.685 13.928)"/>
            <rect id="Rectangle_387" data-name="Rectangle 387" width="9.677" height="1.286" transform="translate(9.937 17.921)"/>
            <rect id="Rectangle_388" data-name="Rectangle 388" width="13.963" height="1.286" transform="translate(5.651 20.267)"/>
            <rect id="Rectangle_389" data-name="Rectangle 389" width="13.963" height="1.286" transform="translate(5.651 22.636)"/>
          </g>
          <g id="Group_753" data-name="Group 753" transform="translate(130.529 64.962)">
            <path id="Path_760" data-name="Path 760" d="M404.267,78.28h-18.69a3.287,3.287,0,0,0-3.287,3.287v27.339a3.287,3.287,0,0,0,3.287,3.287h18.69a3.287,3.287,0,0,0,3.287-3.287V81.567A3.287,3.287,0,0,0,404.267,78.28Zm-.051,30.13H385.628V82.063h4.014a2.037,2.037,0,0,1,1.932-1.4h.994a2.251,2.251,0,0,1,2.184-1.717h.046a2.251,2.251,0,0,1,2.183,1.717h.995a2.037,2.037,0,0,1,1.931,1.4h4.308Z" transform="translate(-382.29 -78.28)"/>
            <rect id="Rectangle_390" data-name="Rectangle 390" width="9.677" height="1.286" transform="translate(9.97 9.213)"/>
            <rect id="Rectangle_391" data-name="Rectangle 391" width="13.963" height="1.286" transform="translate(5.684 11.559)"/>
            <rect id="Rectangle_392" data-name="Rectangle 392" width="13.963" height="1.286" transform="translate(5.684 13.928)"/>
            <rect id="Rectangle_393" data-name="Rectangle 393" width="9.677" height="1.286" transform="translate(9.936 17.921)"/>
            <rect id="Rectangle_394" data-name="Rectangle 394" width="13.963" height="1.286" transform="translate(5.65 20.267)"/>
            <rect id="Rectangle_395" data-name="Rectangle 395" width="13.963" height="1.286" transform="translate(5.65 22.635)"/>
          </g>
          <g id="Group_754" data-name="Group 754">
            <path id="Path_761" data-name="Path 761" d="M237.423,3.507h0C239.14.052,250.239.457,250.239.457V0H234.7a2.356,2.356,0,0,0-.31.519H225V5.466h9.546A2.869,2.869,0,0,0,237.423,3.507Z" transform="translate(-225)"/>
            <rect id="Rectangle_396" data-name="Rectangle 396" width="1.9" height="1.158" transform="translate(0.56)"/>
            <rect id="Rectangle_397" data-name="Rectangle 397" width="1.9" height="1.158" transform="translate(3.391)"/>
            <rect id="Rectangle_398" data-name="Rectangle 398" width="1.9" height="1.158" transform="translate(6.222)"/>
          </g>
          <g id="Group_755" data-name="Group 755" transform="translate(173.491)">
            <path id="Path_762" data-name="Path 762" d="M434.06,3.1A2.739,2.739,0,0,0,437,5.573h10.285V.626H437A2.739,2.739,0,0,0,434.06,3.1Z" transform="translate(-434.06 -0.107)"/>
            <rect id="Rectangle_399" data-name="Rectangle 399" width="1.9" height="1.158" transform="translate(2.463)"/>
            <rect id="Rectangle_400" data-name="Rectangle 400" width="1.9" height="1.158" transform="translate(5.294)"/>
            <rect id="Rectangle_401" data-name="Rectangle 401" width="1.9" height="1.158" transform="translate(8.125)"/>
            <rect id="Rectangle_402" data-name="Rectangle 402" width="1.9" height="1.158" transform="translate(10.957)"/>
          </g>
          <g id="Group_756" data-name="Group 756" transform="translate(39.545 29.404)">
            <path id="Path_763" data-name="Path 763" d="M296.537,58.016H276.86a2.511,2.511,0,1,0,0,4.947h19.83A2.867,2.867,0,0,0,299.567,61h0c1.716-3.456,12.815-3.051,12.815-3.051V53.588C298.244,53.234,296.537,58.016,296.537,58.016Z" transform="translate(-272.868 -38.518)"/>
            <rect id="Rectangle_403" data-name="Rectangle 403" width="1.9" height="9.454" transform="translate(3.512 10.683)"/>
            <rect id="Rectangle_404" data-name="Rectangle 404" width="1.9" height="9.454" transform="translate(6.344 10.683)"/>
            <rect id="Rectangle_405" data-name="Rectangle 405" width="1.9" height="9.454" transform="translate(9.175 10.683)"/>
            <rect id="Rectangle_406" data-name="Rectangle 406" width="1.9" height="9.454" transform="translate(12.006 10.683)"/>
            <rect id="Rectangle_407" data-name="Rectangle 407" width="1.9" height="9.454" transform="translate(14.837 10.683)"/>
            <rect id="Rectangle_408" data-name="Rectangle 408" width="1.9" height="9.454" transform="translate(17.668 10.683)"/>
            <rect id="Rectangle_409" data-name="Rectangle 409" width="1.9" height="9.454" transform="translate(20.499 10.683)"/>
            <path id="Path_764" data-name="Path 764" d="M297.072,41.273a4.921,4.921,0,0,0-4.422-3.529h-7.363v.006s-7.673.585-12.63-2.318a16.865,16.865,0,0,0,.845,5.546,4.92,4.92,0,0,0,4.422,3.529h7.363V44.5s7.672-.585,12.63,2.317A16.876,16.876,0,0,0,297.072,41.273Z" transform="translate(-272.652 -35.432)"/>
          </g>
          <g id="Group_757" data-name="Group 757" transform="translate(99.209 170.415)">
            <path id="Path_765" data-name="Path 765" d="M371.078,219.344l3.29-3.29a5.935,5.935,0,1,0-1.241-1.241l-3.29,3.29-2.238.6-1.573,1.511,1.5,1.446h2.879l.073-.076Zm3.668-11.2a4.451,4.451,0,1,1,0,6.3A4.456,4.456,0,0,1,374.746,208.141Z" transform="translate(-348.204 -205.353)"/>
            <path id="Path_766" data-name="Path 766" d="M358.793,218.486l-2.288-.609-3.316-3.316.006-.006c-7.4-.528-7.566-1.57-7.566-1.57-.292-1.027.46-7.431.46-7.431s-2.409,7.265-1.2,8.4,7.038,1.864,7.038,1.864l-.006.006,3.316,3.316.609,2.287.259.26h5.933L361,220.7Z" transform="translate(-344.549 -205.387)"/>
          </g>
          <g id="Group_758" data-name="Group 758" transform="translate(18.711 134.019)">
            <path id="Path_767" data-name="Path 767" d="M261.484,185.055,248.077,197.94a1.725,1.725,0,0,0-.024,2.465l1.214,1.215a1.726,1.726,0,0,0,2.465-.025l12.825-13.342Z" transform="translate(-247.547 -165.505)"/>
            <path id="Path_768" data-name="Path 768" d="M286.288,163.235a5.931,5.931,0,0,0-8.962,7.722l-3.29,3.29-2.238.6-1.573,1.512,3,2.885,1.455-1.514.6-2.238,3.29-3.29a5.931,5.931,0,0,0,7.722-8.962Zm-1.048,7.344a4.452,4.452,0,1,1,0-6.3A4.457,4.457,0,0,1,285.24,170.579Z" transform="translate(-251.406 -161.496)"/>
            <path id="Path_769" data-name="Path 769" d="M282.847,193.8,265.2,176.839l-2.212-2.211-2.287-.609-3.316-3.316.006-.006c-7.4-.529-7.567-1.57-7.567-1.57-.292-1.027.46-7.431.46-7.431s-2.409,7.265-1.2,8.4,7.038,1.864,7.038,1.864l-.006.006,3.316,3.316.609,2.287,1.075,1.075,18.074,18.805a1.726,1.726,0,0,0,2.465.024l1.215-1.215A1.726,1.726,0,0,0,282.847,193.8Z" transform="translate(-247.751 -161.53)"/>
          </g>
          <path id="Path_770" data-name="Path 770" d="M327.647,206.477c.042-1.393.776-2.284,1.39-3.424a8.387,8.387,0,0,0,.929-3.739,5.635,5.635,0,0,0-3.711-5.93c-2.033-.785-4.145-.149-6.161.4-1.8-.488-3.685-1.046-5.517-.6a2.4,2.4,0,0,1-.6,2.469c-.6.719-2.273-.505-2.04,1.69.112,1.051-.772,1.432-1.724,1.254a7.153,7.153,0,0,0,.012.715,8.388,8.388,0,0,0,.929,3.739c.614,1.14,1.349,2.031,1.39,3.424.041,1.366-.778,5.248-.654,8.465a24.7,24.7,0,0,0,.581,4.616h2.545a15.631,15.631,0,0,1,.31-1.921,13.023,13.023,0,0,1,2.7-5.561,2.845,2.845,0,0,1,4.138,0,13.025,13.025,0,0,1,2.7,5.561,15.778,15.778,0,0,1,.31,1.921h2.544a24.629,24.629,0,0,0,.581-4.616C328.424,211.725,327.605,207.843,327.647,206.477Z" transform="translate(-239.497 -32.84)"/>
          <g id="Group_759" data-name="Group 759" transform="translate(139.067 181.444)">
            <path id="Path_771" data-name="Path 771" d="M400.429,218.644a8.479,8.479,0,0,0-7.85,5.275h13.255v-5.275Z" transform="translate(-392.579 -218.644)"/>
            <path id="Path_772" data-name="Path 772" d="M418.452,218.644h-5.4v5.275H426.3A8.479,8.479,0,0,0,418.452,218.644Z" transform="translate(-396.061 -218.644)"/>
          </g>
          <g id="Group_760" data-name="Group 760" transform="translate(35.342 174.797)">
            <path id="Path_773" data-name="Path 773" d="M289.565,210.634h-18.69a3.287,3.287,0,0,0-3.287,3.287v8.635h3.339v-8.139h4.015a2.036,2.036,0,0,1,1.931-1.4h1a2.251,2.251,0,0,1,2.183-1.717h.046a2.251,2.251,0,0,1,2.183,1.717h.995a2.036,2.036,0,0,1,1.931,1.4h4.309v8.139h3.339v-8.635A3.287,3.287,0,0,0,289.565,210.634Z" transform="translate(-267.588 -210.634)"/>
            <rect id="Rectangle_410" data-name="Rectangle 410" width="9.677" height="1.286" transform="translate(9.971 9.214)"/>
            <rect id="Rectangle_411" data-name="Rectangle 411" width="13.963" height="0.362" transform="translate(5.685 11.56)"/>
          </g>
          <g id="Group_761" data-name="Group 761" transform="translate(0 170.052)">
            <path id="Path_774" data-name="Path 774" d="M236.692,224.195h15.537v-3.909C240.988,220,237.607,222.967,236.692,224.195Z" transform="translate(-226.989 -207.528)"/>
            <rect id="Rectangle_412" data-name="Rectangle 412" width="1.9" height="8.296" transform="translate(0.56 8.371)"/>
            <rect id="Rectangle_413" data-name="Rectangle 413" width="1.9" height="8.296" transform="translate(3.391 8.371)"/>
            <rect id="Rectangle_414" data-name="Rectangle 414" width="1.9" height="8.296" transform="translate(6.222 8.371)"/>
            <path id="Path_775" data-name="Path 775" d="M235.142,208.444a4.92,4.92,0,0,0-4.422-3.528H225v6.709c2.528,0,7.447.294,10.986,2.365A16.882,16.882,0,0,0,235.142,208.444Z" transform="translate(-225 -204.916)"/>
          </g>
          <g id="Group_762" data-name="Group 762" transform="translate(172.442 167.741)">
            <rect id="Rectangle_415" data-name="Rectangle 415" width="1.9" height="8.296" transform="translate(3.512 10.682)"/>
            <rect id="Rectangle_416" data-name="Rectangle 416" width="1.9" height="8.296" transform="translate(6.343 10.682)"/>
            <rect id="Rectangle_417" data-name="Rectangle 417" width="1.9" height="8.296" transform="translate(9.174 10.682)"/>
            <rect id="Rectangle_418" data-name="Rectangle 418" width="1.9" height="8.296" transform="translate(12.005 10.682)"/>
            <path id="Path_776" data-name="Path 776" d="M445.429,204.448s-7.673.585-12.63-2.317a16.875,16.875,0,0,0,.844,5.545,4.92,4.92,0,0,0,4.422,3.529h7.363V211.2s.631-.047,1.644-.048v-6.709h-1.644Z" transform="translate(-432.796 -202.131)"/>
          </g>
          <g id="Group_763" data-name="Group 763" transform="translate(130.385 115.445)">
            <path id="Path_777" data-name="Path 777" d="M406,161.7H386.323a2.511,2.511,0,1,0,0,4.947h19.831a2.869,2.869,0,0,0,2.877-1.96v0c1.716-3.456,12.816-3.051,12.816-3.051v-4.366C407.708,156.916,406,161.7,406,161.7Z" transform="translate(-382.331 -142.2)"/>
            <rect id="Rectangle_419" data-name="Rectangle 419" width="1.9" height="9.454" transform="translate(3.512 10.683)"/>
            <rect id="Rectangle_420" data-name="Rectangle 420" width="1.9" height="9.454" transform="translate(6.343 10.683)"/>
            <rect id="Rectangle_421" data-name="Rectangle 421" width="1.9" height="9.454" transform="translate(9.174 10.683)"/>
            <rect id="Rectangle_422" data-name="Rectangle 422" width="1.9" height="9.454" transform="translate(12.005 10.683)"/>
            <rect id="Rectangle_423" data-name="Rectangle 423" width="1.9" height="9.454" transform="translate(14.836 10.683)"/>
            <rect id="Rectangle_424" data-name="Rectangle 424" width="1.9" height="9.454" transform="translate(17.667 10.683)"/>
            <rect id="Rectangle_425" data-name="Rectangle 425" width="1.9" height="9.454" transform="translate(20.499 10.683)"/>
            <path id="Path_778" data-name="Path 778" d="M406.535,144.954a4.919,4.919,0,0,0-4.422-3.528h-7.363v0s-7.673.586-12.63-2.317a16.88,16.88,0,0,0,.844,5.546,4.919,4.919,0,0,0,4.422,3.528h7.363v0s7.673-.586,12.63,2.317A16.881,16.881,0,0,0,406.535,144.954Z" transform="translate(-382.116 -139.114)"/>
          </g>
          <g id="Group_764" data-name="Group 764" transform="translate(0 87.672)">
            <path id="Path_779" data-name="Path 779" d="M255.643,107.68c-3.724-.431-11.613-1.406-12.659-2.034a4.181,4.181,0,0,1-6.122,0c-.976.586-7.915,1.475-11.862,1.941v.05C231.926,107.286,249.617,107.3,255.643,107.68Z" transform="translate(-225 -105.646)"/>
            <path id="Path_780" data-name="Path 780" d="M257.579,108.255s-.764-.083-1.937-.219c-6.026-.38-23.717-.394-30.643-.043v.812a94.721,94.721,0,0,0,14.923,1.4A92.293,92.293,0,0,0,257.579,108.255Z" transform="translate(-225 -106.002)"/>
            <path id="Path_781" data-name="Path 781" d="M239.923,120.1s12.781.369,17.742-11.519c-.535,1.134-8.274,7.189-17.742,7.189A27.816,27.816,0,0,1,225,111v2.3C230.824,120.362,239.923,120.1,239.923,120.1Z" transform="translate(-225 -106.145)"/>
            <path id="Path_782" data-name="Path 782" d="M264.394,108.455a.249.249,0,0,1-.024.085c.015-.036.032-.068.046-.1Z" transform="translate(-231.698 -106.121)"/>
            <path id="Path_783" data-name="Path 783" d="M264.362,108.577l.007-.015Z" transform="translate(-231.697 -106.142)"/>
            <path id="Path_784" data-name="Path 784" d="M257.7,108.459c-.235.209-7.565,6.664-17.773,6.639A28.177,28.177,0,0,1,225,110.54v.438a27.816,27.816,0,0,0,14.923,4.77C249.717,115.748,257.661,109.269,257.7,108.459Z" transform="translate(-225 -106.125)"/>
          </g>
          <path id="Path_785" data-name="Path 785" d="M230.629,68.594A28.68,28.68,0,0,1,225,68.039V92.8c3.612-5.007,6.886-12.677,7.494-24.264C231.88,68.572,231.259,68.594,230.629,68.594Z" transform="translate(-225 -11.576)"/>
          <g id="Group_765" data-name="Group 765" transform="translate(98.266 20.317)">
            <path id="Path_786" data-name="Path 786" d="M378.065,30.251c-6.749,0-12.709-2.282-16.311-5.769h-.135c-3.6,3.487-9.562,5.769-16.31,5.769-.64,0-1.272-.022-1.9-.062,1.458,27.8,18.259,33.062,18.259,33.062s16.8-5.265,18.259-33.061C379.315,30.23,378.694,30.251,378.065,30.251Zm-8.879,8.522a6.383,6.383,0,0,1-.708,2.846,5.631,5.631,0,0,0-1.058,2.607c-.032,1.04.592,4,.5,6.445a16.384,16.384,0,0,1-.91,5.092.722.722,0,0,1-1.4-.259,12.505,12.505,0,0,0-.3-2.782,9.9,9.9,0,0,0-2.056-4.233,2.165,2.165,0,0,0-3.149,0,9.9,9.9,0,0,0-2.056,4.233,12.505,12.505,0,0,0-.3,2.782.722.722,0,0,1-1.4.259,16.384,16.384,0,0,1-.91-5.092c-.095-2.449.529-5.4.5-6.445a5.63,5.63,0,0,0-1.058-2.607,6.382,6.382,0,0,1-.708-2.846,4.289,4.289,0,0,1,2.826-4.514c1.548-.6,3.155-.114,4.69.3,1.535-.416,3.143-.9,4.69-.3A4.289,4.289,0,0,1,369.187,38.773Z" transform="translate(-343.412 -24.482)"/>
          </g>
          <g id="Group_766" data-name="Group 766" transform="translate(105.509 116.21)">
            <path id="Path_787" data-name="Path 787" d="M370.576,143.1a12.6,12.6,0,0,1-8.677-3.069h-.072a12.6,12.6,0,0,1-8.677,3.069q-.51,0-1.009-.033c.776,14.788,9.714,17.589,9.714,17.589s8.938-2.8,9.714-17.588C371.242,143.093,370.911,143.1,370.576,143.1Zm-4.724,4.534a3.4,3.4,0,0,1-.376,1.514,2.988,2.988,0,0,0-.563,1.387c-.017.554.315,2.125.265,3.428a8.7,8.7,0,0,1-.485,2.709.384.384,0,0,1-.744-.137,6.723,6.723,0,0,0-.163-1.48,5.274,5.274,0,0,0-1.094-2.252,1.151,1.151,0,0,0-1.675,0,5.276,5.276,0,0,0-1.095,2.252,6.717,6.717,0,0,0-.162,1.48.384.384,0,0,1-.745.137,8.719,8.719,0,0,1-.484-2.709c-.051-1.3.28-2.875.265-3.428a3,3,0,0,0-.563-1.387,3.39,3.39,0,0,1-.376-1.514,2.28,2.28,0,0,1,1.5-2.4,19.415,19.415,0,0,0,4.99,0A2.281,2.281,0,0,1,365.853,147.638Z" transform="translate(-352.141 -140.036)"/>
          </g>
          <path id="Path_788" data-name="Path 788" d="M225.79,49.049a17.3,17.3,0,0,1,.421-3.84,13.681,13.681,0,0,1,2.837-5.842,2.989,2.989,0,0,1,4.348,0,13.682,13.682,0,0,1,2.837,5.842,17.3,17.3,0,0,1,.421,3.84,1,1,0,0,0,1.933.356,22.619,22.619,0,0,0,1.257-7.026c.13-3.381-.729-7.46-.687-8.9.044-1.463.816-2.4,1.461-3.6a8.823,8.823,0,0,0,.976-3.929,5.92,5.92,0,0,0-3.9-6.231c-2.136-.825-4.355-.156-6.473.417-2.035-.551-4.163-1.186-6.221-.5v3.908a3.627,3.627,0,0,0,1.316-2.948c.027,4.051,4.578,4.051,4.578,4.051s-4.55,0-4.578,4.051A3.628,3.628,0,0,0,225,25.755V32.1a1.851,1.851,0,0,0,1.316-1.837c.013,2.025,2.289,2.025,2.289,2.025s-2.275,0-2.289,2.026A1.85,1.85,0,0,0,225,32.475V50.038A.98.98,0,0,0,225.79,49.049Zm5.1-21.68c.014,2.025,2.29,2.025,2.29,2.025s-2.275,0-2.29,2.026c-.013-2.026-2.289-2.026-2.289-2.026S230.88,29.394,230.894,27.369Z" transform="translate(-225 -3.291)"/>
          <g id="Group_767" data-name="Group 767" transform="translate(145.258 145.504)">
            <path id="Path_789" data-name="Path 789" d="M416.9,175.722c-2.136-.826-4.355-.157-6.473.417-2.118-.573-4.337-1.242-6.473-.417a5.92,5.92,0,0,0-3.9,6.231,8.814,8.814,0,0,0,.977,3.929c.645,1.2,1.417,2.134,1.461,3.6.042,1.436-.817,5.514-.687,8.9a22.626,22.626,0,0,0,1.257,7.027,1,1,0,0,0,1.933-.357,17.351,17.351,0,0,1,.421-3.84,13.686,13.686,0,0,1,2.837-5.842,2.989,2.989,0,0,1,4.348,0,13.678,13.678,0,0,1,2.838,5.842,17.35,17.35,0,0,1,.42,3.84,1,1,0,0,0,1.934.357,22.649,22.649,0,0,0,1.256-7.027c.13-3.381-.729-7.46-.686-8.9.043-1.463.815-2.4,1.461-3.6a8.812,8.812,0,0,0,.976-3.929A5.919,5.919,0,0,0,416.9,175.722Zm-15.957,4.924s4.551,0,4.578-4.051c.027,4.051,4.578,4.051,4.578,4.051s-4.551,0-4.578,4.051C405.5,180.646,400.947,180.646,400.947,180.646Zm4.578,9.66c-.014-2.026-2.289-2.026-2.289-2.026s2.275,0,2.289-2.025c.014,2.025,2.289,2.025,2.289,2.025S405.539,188.281,405.525,190.307Zm4.578-2.893c-.014-2.026-2.29-2.026-2.29-2.026s2.275,0,2.29-2.026c.013,2.026,2.289,2.026,2.289,2.026S410.117,185.388,410.1,187.414Z" transform="translate(-400.039 -175.335)"/>
          </g>
          <g id="Group_768" data-name="Group 768" transform="translate(102.757 66.557)">
            <path id="Path_790" data-name="Path 790" d="M365.689,80.589c-2.136-.825-4.355-.156-6.473.417-2.118-.573-4.337-1.241-6.473-.417a5.921,5.921,0,0,0-3.9,6.231,8.808,8.808,0,0,0,.977,3.928c.645,1.2,1.417,2.134,1.461,3.6.043,1.436-.817,5.515-.687,8.9a22.619,22.619,0,0,0,1.257,7.027,1,1,0,0,0,1.933-.357,17.343,17.343,0,0,1,.421-3.839,13.688,13.688,0,0,1,2.837-5.843,2.991,2.991,0,0,1,4.348,0,13.681,13.681,0,0,1,2.838,5.843,17.29,17.29,0,0,1,.42,3.839,1,1,0,0,0,1.934.357,22.643,22.643,0,0,0,1.256-7.027c.13-3.38-.729-7.459-.686-8.9.043-1.463.815-2.4,1.461-3.6a8.819,8.819,0,0,0,.977-3.928A5.921,5.921,0,0,0,365.689,80.589Zm-15.957,4.924s4.55,0,4.578-4.051c.027,4.051,4.578,4.051,4.578,4.051s-4.551,0-4.578,4.051C354.283,85.513,349.733,85.513,349.733,85.513Zm4.578,9.661c-.013-2.026-2.289-2.026-2.289-2.026s2.275,0,2.289-2.026c.014,2.026,2.289,2.026,2.289,2.026S354.324,93.149,354.31,95.175Zm4.578-2.894c-.014-2.026-2.29-2.026-2.29-2.026s2.275,0,2.29-2.025c.013,2.025,2.289,2.025,2.289,2.025S358.9,90.255,358.889,92.281Z" transform="translate(-348.824 -80.203)"/>
          </g>
          <path id="Path_791" data-name="Path 791" d="M438.974,128.822l-27.2.15c-1.033.006-1.887,1.278-2.149,3l-1.51.008,0-.314a.532.532,0,0,0-.535-.529.526.526,0,0,0-.516.466l-3.093.017a1.441,1.441,0,0,0-1.355.981l-13.738.076a4.31,4.31,0,0,1-2.54.717l0,.375,16.317-.09a1.446,1.446,0,0,0,1.33.862l3.08-.017v.034a.533.533,0,1,0,1.065-.007l0-.417,1.492-.008c.261,1.773,1.146,3.086,2.2,3.08l27.2-.151.009,1.724a.727.727,0,0,0,.14.423V126.588a.726.726,0,0,0-.2.51Z" transform="translate(-252.45 -21.538)"/>
          <g id="Group_769" data-name="Group 769" transform="translate(21.839 12)">
            <path id="Path_792" data-name="Path 792" d="M262.219,78.331a.59.59,0,0,0-.593-.588l-2.3.013-.051-9.186,4.463-.025a.73.73,0,1,0-.008-1.461L262,67.1l-.151-27.2c-.006-1.033-1.278-1.887-3-2.149l-.008-1.51.314,0a.533.533,0,0,0,.529-.535.526.526,0,0,0-.466-.516l-.017-3.093a1.442,1.442,0,0,0-.981-1.355L258.146,17a4.316,4.316,0,0,1-.716-2.54l-.375,0,.09,16.317a1.446,1.446,0,0,0-.863,1.33l.017,3.08h-.034a.533.533,0,0,0,.006,1.066l.417,0,.008,1.492c-1.774.261-3.086,1.146-3.08,2.2l.15,27.2-1.724.009a.73.73,0,0,0,.008,1.461l4.463-.025.051,9.186-2.3.012a.591.591,0,1,0,.007,1.182l7.362-.041A.59.59,0,0,0,262.219,78.331Z" transform="translate(-251.317 -14.46)"/>
          </g>
          <g id="Group_770" data-name="Group 770" transform="translate(82.688 29.76)">
            <path id="Path_793" data-name="Path 793" d="M326.883,36.5a.589.589,0,0,0,.593.587l2.3-.012.051,9.186-4.463.025a.73.73,0,1,0,.008,1.461l1.724-.01.151,27.2c0,1.033,1.277,1.887,3,2.149l.008,1.51-.314,0a.532.532,0,0,0-.529.535.526.526,0,0,0,.466.516l.017,3.093a1.441,1.441,0,0,0,.981,1.355l.076,13.738a4.317,4.317,0,0,1,.716,2.54l.375,0-.09-16.318a1.444,1.444,0,0,0,.863-1.329l-.017-3.08h.034a.533.533,0,0,0-.007-1.066l-.417,0-.008-1.492c1.773-.261,3.086-1.146,3.08-2.2l-.151-27.2,1.724-.009a.73.73,0,1,0-.008-1.461l-4.463.025-.051-9.186,2.3-.013a.59.59,0,1,0-.007-1.181l-7.362.041A.591.591,0,0,0,326.883,36.5Z" transform="translate(-324.641 -35.861)"/>
          </g>
          <g id="Group_771" data-name="Group 771" transform="translate(58.239 92.556)">
            <path id="Path_794" data-name="Path 794" d="M306.081,175.4a.59.59,0,0,0-.594-.587l-2.3.012-.051-9.186,4.464-.025a.73.73,0,1,0-.008-1.46l-1.724.009-.151-27.2c-.006-1.032-1.278-1.887-3-2.149l-.008-1.51.314,0a.533.533,0,0,0,.529-.536.527.527,0,0,0-.466-.516l-.017-3.093a1.44,1.44,0,0,0-.981-1.354l-.076-13.738a4.309,4.309,0,0,1-.716-2.54l-.375,0,.09,16.318a1.445,1.445,0,0,0-.863,1.33l.017,3.079h-.034a.533.533,0,0,0,.006,1.066l.417,0,.008,1.492c-1.773.261-3.085,1.147-3.08,2.2l.15,27.2-1.724.009a.73.73,0,1,0,.008,1.461l4.463-.024.051,9.185-2.3.013a.59.59,0,1,0,.007,1.181l7.362-.041A.591.591,0,0,0,306.081,175.4Z" transform="translate(-295.179 -111.532)"/>
          </g>
          <g id="Group_772" data-name="Group 772" transform="translate(180.301 127.289)">
            <path id="Path_795" data-name="Path 795" d="M442.288,160.826a11.088,11.088,0,0,0,.7,3.556h5.7v-11a6.538,6.538,0,0,0-2,.419A6.671,6.671,0,0,0,442.288,160.826Z" transform="translate(-442.266 -153.386)"/>
            <path id="Path_796" data-name="Path 796" d="M445.356,171.891c.048,1.618-.92,6.214-.773,10.023A25.5,25.5,0,0,0,446,189.831a1.123,1.123,0,0,0,2.178-.4,19.509,19.509,0,0,1,.474-4.326c.091-.4.214-.836.355-1.286v-15.2h-4.851A6.562,6.562,0,0,1,445.356,171.891Z" transform="translate(-442.587 -155.978)"/>
          </g>
          <g id="Group_773" data-name="Group 773" transform="translate(183.847 89.613)">
            <path id="Path_797" data-name="Path 797" d="M446.717,108.316c.043,0,.785-.085,1.917-.217A11.262,11.262,0,0,0,446.717,108.316Z" transform="translate(-446.569 -108.004)"/>
            <path id="Path_798" data-name="Path 798" d="M446.706,108.36h0Z" transform="translate(-446.567 -108.049)"/>
            <path id="Path_799" data-name="Path 799" d="M449.834,108.035v-.05l-.807.095C449.274,108.064,449.548,108.049,449.834,108.035Z" transform="translate(-446.962 -107.985)"/>
            <path id="Path_800" data-name="Path 800" d="M446.716,108.306l-.007,0c.912.2,1.825.386,2.731.549v-.812c-.286.014-.56.029-.807.045C447.5,108.221,446.759,108.3,446.716,108.306Z" transform="translate(-446.568 -107.995)"/>
            <path id="Path_801" data-name="Path 801" d="M446.575,108.468l-.036-.032a18.689,18.689,0,0,0,2.872,4.843v-2.3C447.648,109.791,446.609,108.771,446.575,108.468Z" transform="translate(-446.539 -108.062)"/>
            <path id="Path_802" data-name="Path 802" d="M449.419,110.981v-.438a23.969,23.969,0,0,1-2.836-2.069C446.616,108.778,447.655,109.8,449.419,110.981Z" transform="translate(-446.546 -108.068)"/>
          </g>
          <g id="Group_774" data-name="Group 774" transform="translate(72.693 101.075)">
            <path id="Path_803" data-name="Path 803" d="M312.774,124.468c.043,0,.785-.085,1.917-.217A11.35,11.35,0,0,0,312.774,124.468Z" transform="translate(-312.626 -122.215)"/>
            <path id="Path_804" data-name="Path 804" d="M312.763,124.513h0Z" transform="translate(-312.624 -122.26)"/>
            <path id="Path_805" data-name="Path 805" d="M346.533,123.833c-3.723-.432-11.612-1.407-12.658-2.035a4.18,4.18,0,0,1-6.122,0c-1.047.629-8.952,1.6-12.669,2.036C321.329,123.438,340.259,123.437,346.533,123.833Z" transform="translate(-313.019 -121.798)"/>
            <path id="Path_806" data-name="Path 806" d="M348.076,124.407s-.763-.082-1.937-.218c-6.274-.4-25.2-.4-31.449,0-1.132.131-1.874.212-1.917.217l-.007,0a80.806,80.806,0,0,0,35.31,0Z" transform="translate(-312.625 -122.154)"/>
            <path id="Path_807" data-name="Path 807" d="M348.164,124.608c-.035.81-7.979,7.289-17.773,7.289-9.758,0-17.667-6.429-17.758-7.276l-.037-.032c4.924,12.015,17.795,11.64,17.795,11.64s12.871.375,17.8-11.64Z" transform="translate(-312.596 -122.273)"/>
            <path id="Path_808" data-name="Path 808" d="M330.4,131.9c9.794,0,17.738-6.479,17.773-7.289-.235.208-7.565,6.663-17.773,6.638-10.1.025-17.381-6.293-17.758-6.626C312.731,125.472,320.641,131.9,330.4,131.9Z" transform="translate(-312.603 -122.277)"/>
          </g>
          <path id="Path_809" data-name="Path 809" d="M433.285,61.755h-.051c-3.6,3.487-9.562,5.77-16.31,5.77-.64,0-1.272-.022-1.9-.063,1.457,27.8,18.259,33.062,18.259,33.062s5.713-1.793,10.765-8.8V66.97a21.419,21.419,0,0,1-10.681-5.215Zm4.69,9.777a4.289,4.289,0,0,1,2.826,4.514,6.392,6.392,0,0,1-.708,2.846,5.63,5.63,0,0,0-1.058,2.607c-.031,1.041.592,4,.5,6.445a16.384,16.384,0,0,1-.91,5.092.722.722,0,0,1-1.4-.259,12.565,12.565,0,0,0-.3-2.782,9.908,9.908,0,0,0-2.056-4.233,2.166,2.166,0,0,0-3.15,0A9.917,9.917,0,0,0,429.654,90a12.569,12.569,0,0,0-.305,2.782.722.722,0,0,1-1.4.259,16.409,16.409,0,0,1-.911-5.092c-.095-2.449.529-5.4.5-6.445a5.63,5.63,0,0,0-1.058-2.607,6.383,6.383,0,0,1-.708-2.846,4.289,4.289,0,0,1,2.826-4.514c1.548-.6,3.155-.114,4.69.3C434.819,71.418,436.427,70.934,437.975,71.532Z" transform="translate(-257.331 -10.507)"/>
          <path id="Path_810" data-name="Path 810" d="M444.995,26.02a8.825,8.825,0,0,0,.976,3.929c.646,1.2,1.417,2.134,1.461,3.6.042,1.436-.817,5.514-.687,8.9A22.622,22.622,0,0,0,448,49.467a.971.971,0,0,0,1.143.632V32.537a3.215,3.215,0,0,0-.973-.188,3.2,3.2,0,0,0,.973-.188V25.817a5.806,5.806,0,0,0-3.262-1.1,5.806,5.806,0,0,0,3.262-1.1V19.7c-.084.027-.168.054-.251.085A5.92,5.92,0,0,0,444.995,26.02Z" transform="translate(-262.426 -3.352)"/>
        </g>
      </g>
    </g>
  </g>
</svg>
