<svg xmlns="http://www.w3.org/2000/svg" width="16.198" height="11.86" viewBox="0 0 16.198 11.86">
  <defs>
    <style>
      .cls-1 {
        fill: #fff;
        stroke: #fff;
        stroke-width: 0.5px;
      }
    </style>
  </defs>
  <path id="Path_288" data-name="Path 288" class="cls-1" d="M10.325,15.485a1.824,1.824,0,0,1-1.938-.2l-7.68-6a1.839,1.839,0,0,1,0-2.9l7.68-6a1.841,1.841,0,0,1,2.972,1.45V13.833A1.824,1.824,0,0,1,10.325,15.485ZM9.7,1.465a.414.414,0,0,0-.442.047L1.581,7.505h0a.407.407,0,0,0-.161.328.415.415,0,0,0,.161.331l7.68,6a.407.407,0,0,0,.253.091.46.46,0,0,0,.189-.044.407.407,0,0,0,.234-.376V1.84A.411.411,0,0,0,9.7,1.465Z" transform="translate(0.25 11.61) rotate(-90)"/>
</svg>
