<svg id="thin-0341-mouse-wireless" xmlns="http://www.w3.org/2000/svg" width="21.979" height="36.636" viewBox="0 0 21.979 36.636">
  <defs>
    <style>
      .cls-1 {
        fill: #fff;
      }
    </style>
  </defs>
  <path id="Path_218" data-name="Path 218" class="cls-1" d="M17.572,42.436h-.042c-6.037,0-10.962-4.4-10.982-9.872l.49-16.925A10.224,10.224,0,0,1,17.439,5.8h.044c5.7,0,9.892,3.913,10.43,9.753,0,.018,0,.038,0,.056l.609,16.907C28.546,37.965,23.631,42.414,17.572,42.436ZM25.9,15.712c-.456-4.8-3.756-7.894-8.42-7.894h-.038c-5.4.022-8.106,4.02-8.4,7.928L8.561,32.593c.018,4.322,4.038,7.828,8.968,7.828h.036c4.949-.018,8.96-3.56,8.946-7.862Z" transform="translate(-6.547 -5.8)"/>
  <path id="Path_221" data-name="Path 221" class="cls-1" d="M12.513,16.188A1.008,1.008,0,0,1,11.5,15.181V9.506a1.008,1.008,0,1,1,2.016,0v5.675A1.007,1.007,0,0,1,12.513,16.188Z" transform="translate(-1.51 15.009)"/>
</svg>
