<svg xmlns="http://www.w3.org/2000/svg" width="18.212" height="18.212" viewBox="0 0 18.212 18.212"><path d="M72.176,0c1.526,0,1.876.017,2.685.054a6.683,6.683,0,0,1,2.211.423,4.464,4.464,0,0,1,1.613,1.05,4.464,4.464,0,0,1,1.05,1.613,6.684,6.684,0,0,1,.423,2.211c.044.971.055,1.281.055,3.755s-.01,2.783-.055,3.755a6.684,6.684,0,0,1-.423,2.211,4.657,4.657,0,0,1-2.663,2.663,6.684,6.684,0,0,1-2.211.423c-.971.044-1.281.055-3.755.055s-2.783-.01-3.755-.055a6.684,6.684,0,0,1-2.211-.423,4.656,4.656,0,0,1-2.663-2.663,6.683,6.683,0,0,1-.423-2.211c-.037-.809-.05-1.16-.054-2.685V8.037c0-1.526.017-1.876.054-2.685a6.683,6.683,0,0,1,.423-2.211,4.464,4.464,0,0,1,1.05-1.613A4.464,4.464,0,0,1,65.141.478,6.683,6.683,0,0,1,67.352.055C68.161.018,68.512,0,70.037,0ZM71.107,4.43a4.676,4.676,0,1,0,4.676,4.676A4.676,4.676,0,0,0,71.107,4.43Zm0,1.641a3.036,3.036,0,1,1-3.036,3.036A3.036,3.036,0,0,1,71.107,6.071Zm4.861-2.918a1.093,1.093,0,1,0,1.093,1.093A1.093,1.093,0,0,0,75.968,3.153Z" transform="translate(-62.001 -0.001)" fill="#363636" fill-rule="evenodd"/></svg>