<svg xmlns="http://www.w3.org/2000/svg" width="85" height="85" viewBox="0 0 85 85">
  <defs>
    <style>
      .cls-1 {
        fill: #fff;
      }

      .cls-2 {
        fill: #ec5569;
      }

      .cls-3 {
        fill: #e63950;
      }

      .cls-4 {
        fill: #fff5f5;
      }

      .cls-5 {
        fill: #dce6eb;
      }
    </style>
  </defs>
  <g id="Group_666" data-name="Group 666" transform="translate(-484 -1035)">
    <circle id="Ellipse_30" data-name="Ellipse 30" class="cls-1" cx="42.5" cy="42.5" r="42.5" transform="translate(484 1035)"/>
    <g id="heart" transform="translate(504.4 1057.44)">
      <path id="Path_291" data-name="Path 291" class="cls-2" d="M41.015,0H13.594A8.262,8.262,0,0,0,5.332,8.262V26.247a8.262,8.262,0,0,0,8.262,8.262H17.53a.339.339,0,0,1,.339.339V43.72a1.158,1.158,0,0,0,2,.793l9.308-9.9a.339.339,0,0,1,.247-.107h11.59a8.262,8.262,0,0,0,8.262-8.262V8.262A8.262,8.262,0,0,0,41.015,0Z" transform="translate(-5.332 0)"/>
      <path id="Path_292" data-name="Path 292" class="cls-3" d="M21.345,42.7a.343.343,0,0,0-.328-.357h-3.81c-4.418,0-8-3.9-8-8.7V14.7A9.428,9.428,0,0,1,9.5,12.353a8.259,8.259,0,0,0-4.171,7.179V37.517a8.262,8.262,0,0,0,8.262,8.262H17.53a.339.339,0,0,1,.339.339V54.99a1.158,1.158,0,0,0,2,.793l1.474-1.568V42.7Z" transform="translate(-5.332 -11.27)"/>
      <path id="Path_293" data-name="Path 293" class="cls-2" d="M152.281,105.95h0a5.372,5.372,0,0,0-7.6,0l-1.185,1.185a.724.724,0,0,1-1.023,0l-1.166-1.166a5.372,5.372,0,0,0-7.6,0h0a5.372,5.372,0,0,0,0,7.6l8.763,8.763a.724.724,0,0,0,1.023,0l8.781-8.782A5.372,5.372,0,0,0,152.281,105.95Z" transform="translate(-121.025 -95.227)"/>
      <path id="Path_294" data-name="Path 294" class="cls-4" d="M152.281,105.95h0a5.372,5.372,0,0,0-7.6,0l-1.185,1.185a.724.724,0,0,1-1.023,0l-1.166-1.166a5.372,5.372,0,0,0-7.6,0h0a5.372,5.372,0,0,0,0,7.6l8.763,8.763a.724.724,0,0,0,1.023,0l8.781-8.782A5.372,5.372,0,0,0,152.281,105.95Z" transform="translate(-121.025 -95.227)"/>
      <path id="Path_295" data-name="Path 295" class="cls-5" d="M136.525,113.776a5.372,5.372,0,0,1,0-7.6h0a5.344,5.344,0,0,1,2.393-1.386,5.368,5.368,0,0,0-5.2,1.386h0a5.372,5.372,0,0,0,0,7.6l8.763,8.763a.724.724,0,0,0,1.023,0l.893-.893Z" transform="translate(-121.026 -95.438)"/>
    </g>
  </g>
</svg>
