<svg xmlns="http://www.w3.org/2000/svg" width="85" height="85" viewBox="0 0 85 85">
  <defs>
    <style>
      .cls-1 {
        fill: #fff;
      }

      .cls-2 {
        fill: #00bbd3;
      }

      .cls-3 {
        fill: #d4e1f4;
      }

      .cls-4 {
        fill: #41cbd7;
      }
    </style>
  </defs>
  <g id="Group_667" data-name="Group 667" transform="translate(-213 -1037)">
    <circle id="Ellipse_29" data-name="Ellipse 29" class="cls-1" cx="42.5" cy="42.5" r="42.5" transform="translate(213 1037)"/>
    <g id="medal" transform="translate(237.48 1056.04)">
      <path id="Path_302" data-name="Path 302" class="cls-2" d="M68.341,256.221a4.062,4.062,0,0,1-3.7-3.6c-.054-.215-.054-.322-.107-.376a.053.053,0,0,0-.054-.054.917.917,0,0,0-.7-.376h-.107l-8,12.826a1.631,1.631,0,0,0,.054,1.771,1.652,1.652,0,0,0,1.664.644l6.976-1.61,1.825,6.923a1.61,1.61,0,0,0,1.342,1.181h.215a1.617,1.617,0,0,0,1.4-.8l4.561-7.62Z" transform="translate(-55.441 -225.955)"/>
      <path id="Path_303" data-name="Path 303" class="cls-3" d="M203.635,261.189l-7.567-12.5a4.092,4.092,0,0,1-2.522.429c-.215,0-.376-.054-.483-.054a.968.968,0,0,0-.8.8,4.086,4.086,0,0,1-7.084,2.254.865.865,0,0,0-.7-.322.747.747,0,0,0-.59.268,3.788,3.788,0,0,1-2.093,1.234,3.5,3.5,0,0,1-.966.107h-.322l5.42,8.908,4.239,7.03a1.556,1.556,0,0,0,1.4.751h.215a1.61,1.61,0,0,0,1.342-1.181l1.825-6.923,6.976,1.61a1.559,1.559,0,0,0,1.664-.644A1.628,1.628,0,0,0,203.635,261.189Z" transform="translate(-167.66 -223.141)"/>
      <path id="Path_304" data-name="Path 304" class="cls-4" d="M71.3,26.4h.107a.77.77,0,0,1,.7.376.053.053,0,0,0,.054.054.513.513,0,0,1,.107.376,4.11,4.11,0,0,0,3.7,3.6h.322a3.5,3.5,0,0,0,.966-.107,3.984,3.984,0,0,0,2.093-1.234.747.747,0,0,1,.59-.268,1.039,1.039,0,0,1,.7.322,4.028,4.028,0,0,0,3.005,1.342,4.069,4.069,0,0,0,4.078-3.6.968.968,0,0,1,.805-.8c.107,0,.268.054.483.054a3.749,3.749,0,0,0,2.522-.429,2.693,2.693,0,0,0,.644-.429,4.072,4.072,0,0,0,1.5-3.166,4.336,4.336,0,0,0-.483-1.986.053.053,0,0,0-.054-.054.912.912,0,0,1,.376-1.234,4.031,4.031,0,0,0,2.469-3.7,4.126,4.126,0,0,0-2.522-3.756.89.89,0,0,1-.429-.8,1.262,1.262,0,0,1,.107-.429,4,4,0,0,0,.107-4.025,4.115,4.115,0,0,0-3.542-2.147,3.158,3.158,0,0,0-.912.107h-.107a.867.867,0,0,1-.859-.751A4.109,4.109,0,0,0,85.036.215,4.039,4.039,0,0,0,80.743,1.4a.911.911,0,0,1-.7.322.85.85,0,0,1-.644-.268A3.976,3.976,0,0,0,76.343,0a4.07,4.07,0,0,0-4.078,3.6.917.917,0,0,1-.859.8h-.161a4.033,4.033,0,0,0-3.381.751,4.15,4.15,0,0,0-1.556,3.22,4.336,4.336,0,0,0,.483,1.986l.054.054a.912.912,0,0,1-.376,1.234,4.035,4.035,0,0,0,.054,7.459.81.81,0,0,1,.429.751.625.625,0,0,1-.107.376,3.971,3.971,0,0,0-.054,4.078A4.128,4.128,0,0,0,70.332,26.4a1.45,1.45,0,0,0,.966,0Z" transform="translate(-63.121 0)"/>
      <path id="Path_305" data-name="Path 305" class="cls-2" d="M157.811,82.024a7.084,7.084,0,1,0,7.084,7.084A7.077,7.077,0,0,0,157.811,82.024Z" transform="translate(-140.94 -73.599)"/>
    </g>
  </g>
</svg>
