<svg xmlns="http://www.w3.org/2000/svg" width="85" height="85" viewBox="0 0 85 85">
  <defs>
    <style>
      .cls-1 {
        fill: #fff;
      }

      .cls-2 {
        fill: #efefef;
      }

      .cls-3 {
        fill: #e5e5e9;
      }

      .cls-4 {
        fill: #326fad;
      }

      .cls-5 {
        fill: #41cbd7;
      }
    </style>
  </defs>
  <g id="Group_664" data-name="Group 664" transform="translate(-1028 -1035)">
    <circle id="Ellipse_32" data-name="Ellipse 32" class="cls-1" cx="42.5" cy="42.5" r="42.5" transform="translate(1028 1035)"/>
    <g id="hospital" transform="translate(1047.04 1053.36)">
      <path id="Path_296" data-name="Path 296" class="cls-2" d="M82.119,61V78.24A6.072,6.072,0,0,1,76.055,84.3H48.512a6.072,6.072,0,0,1-6.065-6.065V61a1.393,1.393,0,0,1,.417-.994l16.275-16a4.506,4.506,0,0,1,6.288,0l16.275,16A1.392,1.392,0,0,1,82.119,61Z" transform="translate(-38.504 -40.784)"/>
      <path id="Path_297" data-name="Path 297" class="cls-3" d="M275.836,61V78.24a6.072,6.072,0,0,1-6.065,6.065H256V42.735a4.473,4.473,0,0,1,3.144,1.278l16.275,16A1.393,1.393,0,0,1,275.836,61Z" transform="translate(-232.221 -40.784)"/>
      <path id="Path_298" data-name="Path 298" class="cls-4" d="M47.159,44.855a1.394,1.394,0,0,1-1.97.017L24.97,25a1.707,1.707,0,0,0-2.382,0L2.369,44.872A1.393,1.393,0,1,1,.417,42.884L20.635,23.013a4.506,4.506,0,0,1,6.288,0L47.141,42.884a1.4,1.4,0,0,1,.018,1.971Z" transform="translate(0 -21.735)"/>
      <path id="Path_299" data-name="Path 299" class="cls-5" d="M171.971,204.9v5.561a.929.929,0,0,1-.929.929h-4.947v4.948a.929.929,0,0,1-.929.929H159.6a.929.929,0,0,1-.929-.929v-4.948h-4.948a.929.929,0,0,1-.929-.929V204.9a.929.929,0,0,1,.929-.929h4.948v-4.948a.929.929,0,0,1,.929-.929h5.561a.929.929,0,0,1,.929.929v4.948h4.947A.929.929,0,0,1,171.971,204.9Z" transform="translate(-138.606 -181.714)"/>
      <path id="Path_300" data-name="Path 300" class="cls-5" d="M265.586,204.9v5.561a.929.929,0,0,1-.929.929H259.71v4.948a.929.929,0,0,1-.929.929H256V198.095h2.781a.929.929,0,0,1,.929.929v4.948h4.947A.929.929,0,0,1,265.586,204.9Z" transform="translate(-232.221 -181.714)"/>
      <path id="Path_301" data-name="Path 301" class="cls-4" d="M279.38,44.855a1.394,1.394,0,0,1-1.97.017L257.191,25A1.693,1.693,0,0,0,256,24.517V21.735a4.473,4.473,0,0,1,3.144,1.278l20.218,19.871A1.4,1.4,0,0,1,279.38,44.855Z" transform="translate(-232.221 -21.735)"/>
    </g>
  </g>
</svg>
