<svg xmlns="http://www.w3.org/2000/svg" width="85" height="85" viewBox="0 0 85 85">
  <defs>
    <style>
      .cls-1 {
        fill: #fff;
      }

      .cls-2 {
        fill: #fee6cc;
      }

      .cls-3 {
        fill: #fcce99;
      }

      .cls-4 {
        fill: #e2780e;
      }

      .cls-5 {
        fill: #a85000;
      }
    </style>
  </defs>
  <g id="Group_665" data-name="Group 665" transform="translate(-756 -1035)">
    <circle id="Ellipse_31" data-name="Ellipse 31" class="cls-1" cx="42.5" cy="42.5" r="42.5" transform="translate(756 1035)"/>
    <g id="mug" transform="translate(774.36 1047.92)">
      <path id="Path_306" data-name="Path 306" class="cls-2" d="M349.146,229.64q-.16,0-.315.008a7.613,7.613,0,1,0,.315-.008Zm0,11.723a4.031,4.031,0,0,1-.666-.054,4.079,4.079,0,0,1,.351-8.092q.156-.012.315-.012a4.079,4.079,0,0,1,0,8.158Z" transform="translate(-308.365 -211.511)"/>
      <path id="Path_307" data-name="Path 307" class="cls-3" d="M345.067,237.351a4.079,4.079,0,0,0,3.413,4.024,14.353,14.353,0,0,1-1.217,3.385,7.644,7.644,0,0,1,1.569-15.046v3.569A4.079,4.079,0,0,0,345.067,237.351Z" transform="translate(-308.365 -211.577)"/>
      <path id="Path_308" data-name="Path 308" class="cls-2" d="M143.337,209.96V219.4a14.537,14.537,0,1,1-29.074.158v-9.6a1.049,1.049,0,0,1,1.05-1.049h26.975A1.048,1.048,0,0,1,143.337,209.96Z" transform="translate(-104.845 -192.946)"/>
      <g id="Group_660" data-name="Group 660" transform="translate(9.419 23.613)">
        <path id="Path_309" data-name="Path 309" class="cls-3" d="M126.532,345.4a6.1,6.1,0,0,1-.594.919,14.552,14.552,0,0,1-9.574-11.216,4.784,4.784,0,0,1,1.018.515,4.92,4.92,0,0,1,1.765,2.141,9.2,9.2,0,0,1,1.417-.113c3.295,0,5.959,1.828,6.479,4.445A4.991,4.991,0,0,1,126.532,345.4Z" transform="translate(-116.146 -329.58)"/>
        <path id="Path_310" data-name="Path 310" class="cls-3" d="M143.338,282.185v3a14.537,14.537,0,0,1-29.074,0v-3a14.537,14.537,0,0,0,29.074,0Z" transform="translate(-114.264 -282.185)"/>
        <rect id="Rectangle_304" data-name="Rectangle 304" class="cls-3" width="23.254" height="3.824" transform="translate(2.91 20.163)"/>
      </g>
      <path id="Path_311" data-name="Path 311" class="cls-4" d="M109.946,381.779a3.284,3.284,0,0,1-.371,1.231,5.961,5.961,0,0,1-4.167,2.789c-2.9.575-5.583-.648-6-2.736,0-.018-.006-.035-.008-.053-.372-2.069,1.632-4.2,4.5-4.768,2.527-.5,4.893.364,5.731,1.979a2.83,2.83,0,0,1,.31,1.558Z" transform="translate(-91.493 -344.476)"/>
      <g id="Group_661" data-name="Group 661" transform="translate(7.863 35.711)">
        <path id="Path_312" data-name="Path 312" class="cls-5" d="M109.955,425.138a5.959,5.959,0,0,1-4.167,2.789c-2.9.576-5.583-.648-6-2.736,0-.018-.006-.035-.009-.053Z" transform="translate(-99.737 -422.315)"/>
        <path id="Path_313" data-name="Path 313" class="cls-5" d="M105.406,403.7c-2.9.576-5.582-.649-6-2.735a2.793,2.793,0,0,1-.039-.84c.853,1.593,3.2,2.443,5.711,1.945s4.354-2.183,4.533-3.981a2.791,2.791,0,0,1,.285.791C110.316,400.97,108.3,403.128,105.406,403.7Z" transform="translate(-99.356 -398.093)"/>
        <path id="Path_314" data-name="Path 314" class="cls-5" d="M141.743,399.974l-5.935,1.18a.776.776,0,0,1-.156.015.794.794,0,0,1-.154-1.573l5.934-1.18a2.831,2.831,0,0,1,.31,1.558Z" transform="translate(-131.154 -398.382)"/>
      </g>
      <path id="Path_315" data-name="Path 315" class="cls-4" d="M52.989,357.914a7.754,7.754,0,0,1-.513.679c-1.661,1.958-4.067,2.695-5.662,1.627a3.05,3.05,0,0,1-1.193-1.627,5.938,5.938,0,0,1,.962-4.959c1.432-2.142,3.717-3.2,5.451-2.652a2.81,2.81,0,0,1,1.32.883C54.524,353.257,54.419,355.773,52.989,357.914Z" transform="translate(-43.183 -320.059)"/>
      <g id="Group_662" data-name="Group 662" transform="translate(2.439 30.911)">
        <path id="Path_316" data-name="Path 316" class="cls-5" d="M54.239,425.138c-1.661,1.958-4.067,2.694-5.662,1.627a3.052,3.052,0,0,1-1.193-1.627Z" transform="translate(-47.384 -417.515)"/>
        <path id="Path_317" data-name="Path 317" class="cls-5" d="M59.654,359.046c-1.641,2.456-4.406,3.488-6.174,2.306a2.8,2.8,0,0,1-.621-.566c1.729.523,3.993-.538,5.414-2.663s1.535-4.623.39-6.021a2.794,2.794,0,0,1,.761.357C61.192,353.641,61.295,356.591,59.654,359.046Z" transform="translate(-52.287 -352.102)"/>
        <path id="Path_318" data-name="Path 318" class="cls-5" d="M80.146,353.093l-3.361,5.028a.794.794,0,1,1-1.321-.882l3.362-5.029a2.81,2.81,0,0,1,1.32.883Z" transform="translate(-72.414 -352.199)"/>
      </g>
      <path id="Path_319" data-name="Path 319" class="cls-2" d="M24.018,443.576h0a1.039,1.039,0,0,0,.845,1.021l11.442,2.173H59.643L71.085,444.6a1.039,1.039,0,0,0,.845-1.021h0a1.039,1.039,0,0,0-1.039-1.039H25.057A1.039,1.039,0,0,0,24.018,443.576Z" transform="translate(-24.018 -402.187)"/>
      <g id="Group_663" data-name="Group 663" transform="translate(9.419 0)">
        <rect id="Rectangle_305" data-name="Rectangle 305" class="cls-3" width="29.074" height="1.589" transform="translate(0 18.365)"/>
        <path id="Path_320" data-name="Path 320" class="cls-3" d="M272.39,3.139A3.6,3.6,0,0,0,270.7.081a.527.527,0,0,0-.561.892,2.557,2.557,0,0,1,0,4.333.533.533,0,0,0,0,.892,2.557,2.557,0,0,1,0,4.333.527.527,0,1,0,.561.892,3.611,3.611,0,0,0,.573-5.671A3.59,3.59,0,0,0,272.39,3.139Z" transform="translate(-255.684 0)"/>
        <path id="Path_321" data-name="Path 321" class="cls-3" d="M324.266,75.554a.527.527,0,1,0-.561.892,2.558,2.558,0,0,1,0,4.333.527.527,0,1,0,.561.892,3.611,3.611,0,0,0,0-6.117Z" transform="translate(-305.543 -70.247)"/>
        <path id="Path_322" data-name="Path 322" class="cls-3" d="M212.748,75.553a.527.527,0,0,0-.561.892,2.557,2.557,0,0,1,0,4.333.527.527,0,1,0,.561.892,3.611,3.611,0,0,0,0-6.117Z" transform="translate(-201.745 -70.247)"/>
      </g>
    </g>
  </g>
</svg>
