<svg xmlns="http://www.w3.org/2000/svg" xmlns:xlink="http://www.w3.org/1999/xlink" width="46.64" height="53" viewBox="0 0 46.64 53">
  <defs>
    <style>
      .cls-1 {
        fill: none;
      }

      .cls-2 {
        clip-path: url(#clip-path);
      }

      .cls-3 {
        fill: #7bbdd1;
      }

      .cls-4 {
        fill: #a2daeb;
      }
    </style>
    <clipPath id="clip-path">
      <rect class="cls-1" width="46.64" height="53"/>
    </clipPath>
  </defs>
  <g id="Repeat_Grid_5" data-name="Repeat Grid 5" class="cls-2">
    <g id="Group_1018" data-name="Group 1018" transform="translate(0 -75.936)">
      <path id="Path_820" data-name="Path 820" class="cls-3" d="M42.643,113.036H39.977a4,4,0,0,0-3.332,1.786,4,4,0,0,0-3.33-1.786H30.649a3.983,3.983,0,0,0-2.665,1.033,3.983,3.983,0,0,0-2.665-1.033H22.653a3.966,3.966,0,0,0-2.535.927A4.03,4.03,0,0,0,18,112.308l-2.782-.923a4.013,4.013,0,0,0-2.954.158,3.78,3.78,0,0,0-1.1-2.535l-2.095-2.085a3.827,3.827,0,0,0-1.732-.976A3.934,3.934,0,0,0,8,103.761v-2.65a3.929,3.929,0,0,0-1.04-2.65A3.93,3.93,0,0,0,8,95.811v-2.65a3.934,3.934,0,0,0-.665-2.186A3.829,3.829,0,0,0,9.063,90l2.095-2.085a3.778,3.778,0,0,0,1.11-2.535,4.012,4.012,0,0,0,2.954.158L18,84.614a4.027,4.027,0,0,0,2.12-1.657,3.965,3.965,0,0,0,2.535.927h2.666a3.984,3.984,0,0,0,2.665-1.033,3.984,3.984,0,0,0,2.665,1.033h2.666a4,4,0,0,0,3.33-1.786,4,4,0,0,0,3.327,1.787h2.666a3.975,3.975,0,1,0,0-7.95H39.977a4,4,0,0,0-3.332,1.786,4,4,0,0,0-3.33-1.786H30.649a3.983,3.983,0,0,0-2.665,1.033,3.983,3.983,0,0,0-2.665-1.033H22.653a4,4,0,0,0-3.313,1.753,4.061,4.061,0,0,0-3.912-.755l-2.781.922a4.057,4.057,0,0,0-2.763,3.7A3.817,3.817,0,0,0,5.2,82.591L3.339,84.9a3.784,3.784,0,0,0-.265,4.4A3.981,3.981,0,0,0,0,93.161v2.65a3.929,3.929,0,0,0,1.04,2.65A3.93,3.93,0,0,0,0,101.111v2.65a3.981,3.981,0,0,0,3.074,3.858,3.781,3.781,0,0,0,.263,4.4l1.86,2.313A3.839,3.839,0,0,0,8.2,115.768h0a3.841,3.841,0,0,0,1.678-.4,4.056,4.056,0,0,0,2.761,3.7l2.784.923a4.07,4.07,0,0,0,1.289.212h0a4.065,4.065,0,0,0,2.623-.964,4,4,0,0,0,3.315,1.75h2.666a3.983,3.983,0,0,0,2.665-1.033,3.983,3.983,0,0,0,2.665,1.033h2.666a4,4,0,0,0,3.33-1.786,4,4,0,0,0,3.332,1.786h2.666a3.975,3.975,0,1,0,0-7.95Z" transform="translate(0 0)"/>
      <g id="Group_1007" data-name="Group 1007" transform="translate(0.003 79.911)">
        <path id="Path_821" data-name="Path 821" class="cls-4" d="M42.665,322.914H40a4,4,0,0,1-3.332-1.786,4,4,0,0,1-3.33,1.786H30.671a3.983,3.983,0,0,1-2.665-1.033,3.983,3.983,0,0,1-2.665,1.033H22.675a4,4,0,0,1-3.312-1.753,4.065,4.065,0,0,1-2.623.964h0a4.07,4.07,0,0,1-1.289-.212l-2.784-.923A4.056,4.056,0,0,1,9.905,317.3a3.84,3.84,0,0,1-1.678.4h0a3.839,3.839,0,0,1-3.006-1.435l-1.86-2.312a3.783,3.783,0,0,1-.265-4.4A3.979,3.979,0,0,1,.029,305.8a46.925,46.925,0,0,0,.364,6.512,22.517,22.517,0,0,0,22.154,18.55H40.3a6.36,6.36,0,0,0,6.36-6.36h0v-5.3h-.026A3.981,3.981,0,0,1,42.665,322.914Z" transform="translate(-0.025 -281.84)"/>
        <path id="Path_822" data-name="Path 822" class="cls-4" d="M93.207,112.616H90.541a4,4,0,0,1-3.332-1.786,4,4,0,0,1-3.33,1.786H81.213a3.983,3.983,0,0,1-2.665-1.033,3.984,3.984,0,0,1-2.665,1.033H73.217a3.972,3.972,0,0,1-2.535-.927,4.027,4.027,0,0,1-2.12,1.657l-2.781.922a4.013,4.013,0,0,1-2.954-.158,3.781,3.781,0,0,1-1.106,2.535l-2.095,2.085a3.827,3.827,0,0,1-1.732.976,3.934,3.934,0,0,1,.665,2.186v2.65a3.923,3.923,0,0,1-1,2.6l.424-.212a21.072,21.072,0,0,1,15.1-6.36H90.844a6.36,6.36,0,0,0,6.36-6.36v-5.565A3.991,3.991,0,0,1,93.207,112.616Z" transform="translate(-50.567 -108.641)"/>
      </g>
    </g>
  </g>
</svg>
